<?xml version="1.0" encoding="UTF-8" standalone="no"?>
<!-- Created with Inkscape (http://www.inkscape.org/) -->

<svg
   xmlns:dc="http://purl.org/dc/elements/1.1/"
   xmlns:cc="http://creativecommons.org/ns#"
   xmlns:rdf="http://www.w3.org/1999/02/22-rdf-syntax-ns#"
   xmlns:svg="http://www.w3.org/2000/svg"
   xmlns="http://www.w3.org/2000/svg"
   xmlns:sodipodi="http://sodipodi.sourceforge.net/DTD/sodipodi-0.dtd"
   xmlns:inkscape="http://www.inkscape.org/namespaces/inkscape"
   width="652.7854"
   height="630.76056"
   viewBox="0 0 172.71613 166.88874"
   version="1.1"
   id="svg8"
   inkscape:version="0.92.3 (2405546, 2018-03-11)"
   sodipodi:docname="Grizzlies_Logo.svg">
  <defs
     id="defs2" />
  <sodipodi:namedview
     id="base"
     pagecolor="#ffffff"
     bordercolor="#666666"
     borderopacity="1.0"
     inkscape:pageopacity="0.0"
     inkscape:pageshadow="2"
     inkscape:zoom="1"
     inkscape:cx="281.28901"
     inkscape:cy="392.92384"
     inkscape:document-units="px"
     inkscape:current-layer="layer4"
     showgrid="false"
     showborder="true"
     inkscape:snap-center="false"
     inkscape:window-width="1850"
     inkscape:window-height="1058"
     inkscape:window-x="1912"
     inkscape:window-y="-8"
     inkscape:window-maximized="1"
     inkscape:snap-others="false"
     inkscape:object-nodes="false"
     inkscape:pagecheckerboard="true"
     units="px"
     fit-margin-top="0"
     fit-margin-left="0"
     fit-margin-right="0"
     fit-margin-bottom="0" />
  <metadata
     id="metadata5">
    <rdf:RDF>
      <cc:Work
         rdf:about="">
        <dc:format>image/svg+xml</dc:format>
        <dc:type
           rdf:resource="http://purl.org/dc/dcmitype/StillImage" />
        <dc:title></dc:title>
      </cc:Work>
    </rdf:RDF>
  </metadata>
  <g
     inkscape:groupmode="layer"
     id="layer3"
     inkscape:label="W_Interior"
     style="display:none"
     sodipodi:insensitive="true"
     transform="translate(-18.641928,-36.482528)">
    <path
       inkscape:connector-curvature="0"
       id="path901"
       d="M -63.261916,180.43083 C -64.2974,176.01777 -71.834072,143.69785 -80.010068,108.6088 L -94.875516,44.810438 -74.470876,44.6057 c 15.356063,-0.154143 20.4988,0.02664 20.785213,0.72788 0.209319,0.512995 2.635101,10.644582 5.39063,22.514653 2.755534,11.870104 5.157908,21.823909 5.338629,22.119616 0.180682,0.295868 2.883168,-9.831756 6.005437,-22.505538 l 5.676891,-23.043212 H -16.5161 -1.7581116 L 4.161559,67.477371 c 3.2558166,12.682064 6.066474,22.809571 6.245907,22.505568 0.179517,-0.304024 1.666794,-6.717307 3.305205,-14.251758 C 15.3511,68.1967 17.613713,58.069196 18.740725,53.225639 l 2.049092,-8.80654 H 41.378544 61.967266 L 55.097795,75.144074 C 51.3196,92.042795 44.091924,124.45079 39.036293,147.16179 l -9.192054,41.29277 -15.563345,-0.009 -15.5633516,-0.009 -7.4301354,-28.22835 c -4.086586,-15.52511 -7.597823,-27.93788 -7.802765,-27.58344 -0.204947,0.35447 -3.373279,13.05767 -7.040741,28.22933 l -6.668121,27.58484 -15.577488,0.009 -15.577502,0.009 z"
       style="display:inline;opacity:1;fill:#ffff00;stroke-width:0.6360544" />
  </g>
  <g
     inkscape:groupmode="layer"
     id="layer4"
     inkscape:label="Modifications"
     style="display:inline"
     sodipodi:insensitive="true"
     transform="translate(-18.641928,-36.482528)">
    <g
       id="g4580"
       transform="translate(121.45436)">
      <path
         style="display:inline;opacity:1;fill:#ffffff;fill-opacity:1;stroke:#000000;stroke-width:0.5291667;stroke-linecap:butt;stroke-linejoin:miter;stroke-miterlimit:4;stroke-dasharray:none;stroke-opacity:1"
         d="m -12.528684,174.91676 c 2.7513196,-2.8755 9.7042082,-6.94787 12.00635978,-5.66817 2.05945092,1.14478 3.06647952,3.88782 2.22715022,8.93202 -2.58835077,15.55545 -26.954259,28.343 -45.333872,23.11103 20.228393,-4.76322 30.041889,-22.36337 31.100362,-26.37488 z"
         id="path4561"
         inkscape:connector-curvature="0"
         sodipodi:nodetypes="csscc" />
      <path
         sodipodi:nodetypes="csscc"
         inkscape:connector-curvature="0"
         id="path4563"
         d="m -18.504979,140.36647 c 1.535243,-1.5191 6.391318,-5.52867 10.8237595,-2.21197 4.324444,3.23587 6.113634,9.21541 2.5772529,14.42351 -6.0100784,8.85118 -27.7499564,28.96101 -44.9389444,24.85352 16.722663,-12.17155 28.032063,-34.64105 31.537932,-37.06506 z"
         style="display:inline;opacity:1;fill:#ffffff;fill-opacity:1;stroke:#ffffff;stroke-width:0.5291667;stroke-linecap:butt;stroke-linejoin:miter;stroke-miterlimit:4;stroke-dasharray:none;stroke-opacity:1" />
      <path
         style="display:inline;opacity:1;fill:#ffffff;fill-opacity:1;stroke:#fefefe;stroke-width:0.5291667;stroke-linecap:butt;stroke-linejoin:miter;stroke-miterlimit:4;stroke-dasharray:none;stroke-opacity:1"
         d="m -41.236252,119.1319 c 1.535243,-1.5191 5.362329,-3.2836 9.794771,0.0331 4.324444,3.23587 4.991102,7.99933 1.454721,13.20743 -6.010078,8.85118 -25.598437,20.16784 -35.490966,36.45301 -1.237849,-23.58396 20.735605,-47.26953 24.241474,-49.69354 z"
         id="path4565"
         inkscape:connector-curvature="0"
         sodipodi:nodetypes="csscc" />
      <path
         sodipodi:nodetypes="csscc"
         inkscape:connector-curvature="0"
         id="path4567"
         d="m -88.231892,160.55249 c 0,0 -9.422608,-22.7879 10.380194,-44.02492 1.47292,-1.5796 4.894608,-4.78031 9.32705,-1.46361 4.324444,3.23587 6.313519,9.7565 2.675498,12.79921 -14.787862,7.65833 -19.416431,24.04711 -22.382742,32.68932 z"
         style="display:inline;opacity:1;fill:#ffffff;fill-opacity:1;stroke:#ffffff;stroke-width:0.5291667;stroke-linecap:butt;stroke-linejoin:miter;stroke-miterlimit:4;stroke-dasharray:none;stroke-opacity:1" />
      <path
         inkscape:connector-curvature="0"
         transform="scale(0.26458333)"
         id="path1210"
         d="m -118.19922,137.88672 a 30.003,30.003 0 0 0 -29.1289,22.8164 l -13.76758,55.86719 c -2.00987,-8.52575 -4.43353,-18.96821 -6.06055,-25.76367 -1.85807,-7.76045 -3.41405,-14.18624 -4.58398,-18.89648 -0.58497,-2.35512 -1.06882,-4.26588 -1.47657,-5.81836 -0.40774,-1.55248 0.88297,0.76027 -1.91211,-6.08985 a 30.003,30.003 0 0 0 -0.006,-0.008 c -5.99138,-14.66902 -14.8269,-16.30078 -18.85351,-17.75976 -4.02661,-1.45902 -6.5336,-1.82126 -9.08008,-2.19922 -5.09297,-0.75593 -10.04775,-1.03037 -16.70508,-1.26368 -13.31465,-0.46662 -32.82349,-0.4764 -61.99414,-0.18359 l -77.11719,0.77539 a 30.003,30.003 0 0 0 -28.91601,36.80469 l 56.18359,241.13086 c 6.30992,27.08037 7.0083,30.04753 12.92578,55.4375 6.20498,-10.38809 13.93773,-20.88061 23.51172,-31.28516 -3.42879,-14.71296 -3.69618,-15.83469 -7.2207,-30.96094 l -56.18359,-241.1289 77.11914,-0.77344 c 58.03866,-0.58259 77.47608,0.1016 78.55859,2.75195 0.79113,1.93888 9.95845,40.23049 20.37305,85.09375 10.41461,44.86339 19.49469,82.48393 20.17773,83.60157 0.68289,1.11824 10.89852,-37.15769 22.69922,-85.0586 l 21.45508,-87.09375 h 55.777342 55.7792968 L 15.728516,255.0332 c 12.305444,47.93221 22.92925,86.20954 23.607422,85.06055 0.678485,-1.14907 6.299767,-25.38857 12.492187,-53.86523 6.192488,-28.47678 14.744333,-66.75419 19.003906,-85.06055 l 7.744141,-33.28516 h 77.814448 77.81641 l -25.96289,116.12696 c -14.27979,63.86914 -41.59718,186.35455 -60.70508,272.1914 l -34.74218,156.06836 -58.822271,-0.0352 -58.8222652,-0.0332 -1.9765626,-7.50781 c -6.0658202,8.74892 -13.8506882,16.91702 -22.8769532,24.25 a 30.003,30.003 0 0 0 24.8359376,13.25976 l 58.8183594,0.0293 58.828125,0.0391 a 30.003,30.003 0 0 0 29.29687,-23.48242 L 176.81836,562.7207 c 19.10563,-85.82566 46.42582,-208.32061 60.70117,-272.16992 l 25.96289,-116.125 a 30.003,30.003 0 0 0 -29.27734,-36.53906 h -77.8125 -77.820314 a 30.003,30.003 0 0 0 -29.216797,23.20117 l -7.744141,33.28516 c -1.109371,4.76773 -3.331201,15.00457 -4.878906,21.83593 L 22.412109,160.42383 A 30.003,30.003 0 0 0 -6.6445312,137.88672 H -62.421875 Z m 55.82422,363.3457 c -0.01817,-0.002 -0.03282,0.006 -0.04492,0.0274 -0.365243,0.63171 -3.279073,11.88685 -7.648437,29.35742 0.04219,-0.0303 0.0873,-0.0689 0.128906,-0.0977 2.562424,-2.53548 7.5735,-6.90454 13.8125,-9.91601 -3.486937,-12.01077 -5.802574,-19.31002 -6.248047,-19.3711 z m -217.73438,4.8457 c -9.46652,9.36174 -17.22536,19.77678 -23.70312,30.4629 13.7365,58.91883 33.28138,142.79215 35.50195,152.25586 l 7.11719,30.33203 a 30.003,30.003 0 0 0 29.22461,23.15039 l 58.87891,-0.0391 54.20117,-0.0273 c 13.60454,-8.05156 25.16814,-17.48038 34.804686,-27.06055 l 22.660156,-93.71484 c -11.31983,9.66902 -24.026633,19.15699 -37.464844,27.29297 l -15.343748,63.48047 -58.87696,0.0332 -58.875,0.0332 -7.11523,-30.33398 c -2.53551,-10.80593 -23.87194,-102.35319 -41.00977,-175.86524 z m 244.76563,90.33008 c -6.987615,7.58894 -15.347251,15.76592 -24.722656,23.86524 l 11.615234,44.13476 c 0.486358,-1.27267 0.857345,-2.38653 1.09961,-3.30468 5.433801,-5.67906 15.197151,-12.57172 24.529296,-17.18946 l -10.107422,-38.40234 c -0.822035,-3.12295 -1.605903,-6.05271 -2.414062,-9.10352 z"
         style="color:#000000;font-style:normal;font-variant:normal;font-weight:normal;font-stretch:normal;font-size:medium;line-height:normal;font-family:sans-serif;font-variant-ligatures:normal;font-variant-position:normal;font-variant-caps:normal;font-variant-numeric:normal;font-variant-alternates:normal;font-feature-settings:normal;text-indent:0;text-align:start;text-decoration:none;text-decoration-line:none;text-decoration-style:solid;text-decoration-color:#000000;letter-spacing:normal;word-spacing:normal;text-transform:none;writing-mode:lr-tb;direction:ltr;text-orientation:mixed;dominant-baseline:auto;baseline-shift:baseline;text-anchor:start;white-space:normal;shape-padding:0;clip-rule:nonzero;display:inline;overflow:visible;visibility:visible;opacity:1;isolation:auto;mix-blend-mode:normal;color-interpolation:sRGB;color-interpolation-filters:linearRGB;solid-color:#000000;solid-opacity:1;vector-effect:none;fill:#001564;fill-opacity:1;fill-rule:nonzero;stroke:none;stroke-width:60;stroke-linecap:butt;stroke-linejoin:round;stroke-miterlimit:4;stroke-dasharray:none;stroke-dashoffset:0;stroke-opacity:1;paint-order:stroke fill markers;color-rendering:auto;image-rendering:auto;shape-rendering:auto;text-rendering:auto;enable-background:accumulate" />
      <path
         inkscape:connector-curvature="0"
         transform="scale(0.26458333)"
         id="path1207"
         d="m -118.20117,167.88281 -21.45508,87.09375 c -11.8007,47.90091 -22.01633,86.17684 -22.69922,85.0586 -0.68304,-1.11764 -9.76312,-38.73818 -20.17773,-83.60157 -10.4146,-44.86326 -19.58192,-83.15487 -20.37305,-85.09375 -1.08251,-2.65035 -20.51993,-3.33454 -78.55859,-2.75195 l -77.11914,0.77344 56.18359,241.1289 c 3.52452,15.12625 3.79191,16.24798 7.2207,30.96094 0.31605,-0.34347 0.61742,-0.68799 0.9375,-1.03125 5.56694,-5.97014 18.49942,-18.06876 35.25196,-5.5332 16.34435,12.23006 23.86132,36.87499 10.11132,48.375 -12.10341,6.26811 -22.40223,14.08595 -31.23047,22.8164 17.13783,73.51205 38.47426,165.05931 41.00977,175.86524 l 7.11523,30.33398 58.875,-0.0332 58.87696,-0.0332 15.343748,-63.48047 c -28.982678,17.54715 -61.320338,28.79 -90.249998,21.87695 63.00529,-45.85825 105.67683,-130.38419 119.070311,-139.99023 4.369364,-17.47057 7.283194,-28.72571 7.648437,-29.35742 0.308911,-0.53426 2.663846,6.84322 6.292969,19.34375 7.888935,-3.80788 17.741211,-5.44508 27.095703,1.55468 16.344355,12.23006 23.1060844,34.82952 9.740234,54.51368 -3.798113,5.59355 -9.288708,12.39022 -16.052734,19.73632 0.808159,3.05081 1.592027,5.98057 2.414062,9.10352 l 10.107422,38.40234 c 0.02232,-0.011 0.0441,-0.0202 0.06641,-0.0312 1.020533,-0.5039 2.031614,-0.97969 3.035156,-1.42383 0.07667,-0.034 0.151982,-0.064 0.228515,-0.0977 3.60866,-1.58216 7.063774,-2.76001 10.0664068,-3.28125 6.396e-4,-1.1e-4 0.00131,1.1e-4 0.00195,0 0.4252361,-0.0738 0.8416579,-0.13604 1.2480469,-0.1836 0.034306,-0.004 0.067396,-0.006 0.1015624,-0.01 0.3761206,-0.0421 0.7451761,-0.0754 1.1035157,-0.0937 0.065788,-0.003 0.1281965,-0.003 0.1933593,-0.006 0.3161125,-0.0123 0.6288712,-0.0211 0.9296876,-0.0137 0.1285033,0.003 0.2494098,0.0168 0.375,0.0234 0.2408846,0.0131 0.4831178,0.0238 0.7128906,0.0508 0.1502237,0.0174 0.290257,0.0487 0.4355468,0.0723 0.1913407,0.0312 0.3878162,0.0557 0.5703126,0.0977 0.194361,0.0445 0.3746588,0.10707 0.5585937,0.16406 0.1248642,0.0388 0.2570443,0.0686 0.3769531,0.11328 0.2969408,0.11036 0.5785577,0.23735 0.84375,0.38477 2.43242237,1.3521 4.477054,3.29325 6.0410156,5.90625 2.836e-4,4.7e-4 -2.835e-4,10e-4 0,0.002 0.6252255,1.04482 1.1747216,2.19642 1.640625,3.46094 2.134e-4,5.8e-4 -2.132e-4,10e-4 0,0.002 1.1649035,3.16244 1.8130953,7.02791 1.8535157,11.67774 5.9e-6,6.7e-4 -5.9e-6,10e-4 0,0.002 0.0161,1.85971 -0.063789,3.84517 -0.2480469,5.96094 -5.82e-5,6.6e-4 5.82e-5,10e-4 0,0.002 -0.092136,1.05766 -0.211073,2.1479 -0.3554688,3.27148 -8.51e-5,6.7e-4 8.52e-5,10e-4 0,0.002 -0.1444306,1.12366 -0.3155141,2.28177 -0.5136718,3.47265 -0.1352909,0.81307 -0.2924303,1.62276 -0.4589844,2.43164 -0.057849,0.28107 -0.1200691,0.56126 -0.1816406,0.8418 -0.123441,0.56218 -0.2543061,1.12362 -0.3925782,1.68359 -0.064785,0.26252 -0.1273034,0.5251 -0.1953124,0.78711 -0.2103296,0.80985 -0.4310837,1.61701 -0.671875,2.42188 -0.00254,0.009 -0.00527,0.0169 -0.00781,0.0254 -0.013922,0.0465 -0.030899,0.0922 -0.044922,0.13867 -0.2233374,0.73987 -0.4603875,1.4775 -0.7089844,2.21289 -0.09544,0.28257 -0.1958017,0.56382 -0.2949219,0.8457 -0.1899421,0.53973 -0.3865347,1.07811 -0.5898437,1.61524 -0.1025072,0.27103 -0.2027197,0.54214 -0.3085938,0.8125 -0.2988511,0.76253 -0.6082922,1.5243 -0.9335937,2.28125 -0.091972,0.21417 -0.1910935,0.42691 -0.2851563,0.64062 -0.2404843,0.54598 -0.48623949,1.08992 -0.74023435,1.63282 -0.17000395,0.36364 -0.34549121,0.72567 -0.52148437,1.08789 -0.18866802,0.38803 -0.38070125,0.77574 -0.57617188,1.16211 -0.19508395,0.38585 -0.38804392,0.77209 -0.5898438,1.15625 -0.3492637,0.66447 -0.7071185,1.32709 -1.0761718,1.98632 -0.00514,0.009 -0.010479,0.0182 -0.015625,0.0273 -0.2105776,0.37601 -0.4315103,0.74879 -0.6484375,1.12305 -0.1991078,0.34336 -0.3971714,0.68744 -0.6015625,1.02929 -0.2584883,0.43249 -0.5222024,0.86295 -0.7890625,1.29297 -0.1939945,0.31252 -0.3914835,0.62436 -0.5898438,0.93555 -0.2602505,0.40836 -0.5194085,0.81663 -0.7871093,1.22265 -0.4107608,0.62294 -0.8298293,1.24209 -1.2578126,1.85938 l 1.9765626,7.50781 58.8222649,0.0332 58.822269,0.0352 34.74218,-156.06836 c 19.1079,-85.83685 46.42529,-208.32226 60.70508,-272.1914 l 25.96289,-116.1269 H 156.39062 78.576172 l -7.744141,33.28516 c -4.259573,18.30636 -12.811418,56.58377 -19.003906,85.06055 -6.19242,28.47666 -11.813702,52.71616 -12.492187,53.86523 C 38.657766,341.24274 28.03396,302.96541 15.728516,255.0332 L -6.6445312,167.88281 H -62.423828 Z m -19.49024,275.38477 c 5.62315,0.10337 12.05171,2.02657 18.85743,7.11914 16.34435,12.23006 18.863896,30.23381 5.49804,49.91797 -22.71525,33.45328 -96.74958,76.22514 -134.13867,137.77539 -4.67848,-89.13623 78.37057,-178.65675 91.62109,-187.81836 3.44523,-3.40901 9.94367,-7.14522 18.16211,-6.99414 z"
         style="display:inline;opacity:1;fill:#ffff00;stroke-width:2.40398502" />
      <path
         inkscape:connector-curvature="0"
         id="path1204"
         transform="scale(0.26458333)"
         d="m -55.316406,198.01367 c -0.578001,0.006 -1.393965,0.20544 -2.457032,0.57422 -1.812124,0.62864 -3.038914,1.883 -2.724609,2.78906 0.314317,0.90607 -0.148135,1.89812 -1.027344,2.20313 -0.879208,0.305 -4.895821,3.68352 -8.927734,7.50976 -4.031943,3.82631 -13.558543,10.55296 -21.169922,14.94727 -10.206153,5.89238 -15.880973,10.48587 -21.615233,17.49805 -12.66299,15.48516 -18.05308,20.12739 -22.25781,19.16796 -1.99552,-0.4553 -5.29872,-0.24782 -7.3418,0.46094 -4.5445,1.57652 -16.2839,17.19557 -17.9707,23.91016 -0.67672,2.69374 -2.57133,5.36157 -4.20899,5.92969 -3.00915,1.04389 -18.59281,-0.54214 -23.63672,-2.40625 -1.50651,-0.55678 -10.32342,1.56538 -19.6289,4.72656 -13.56816,4.60907 -18.41068,5.52916 -24.60547,4.66992 -4.24226,-0.58846 -8.11437,-0.93142 -8.60352,-0.76172 -3.1329,1.08683 2.10003,5.44174 9.62696,8.01172 4.89374,1.67094 10.19138,3.84772 11.77148,4.83789 1.58006,0.9902 2.62624,1.01381 2.32422,0.0527 -0.30122,-0.96135 -1.72778,-2.32127 -3.17188,-3.02149 -1.44405,-0.70024 -2.40172,-1.73604 -2.12695,-2.30273 0.27465,-0.5665 7.16397,-3.92032 15.30859,-7.45313 11.76132,-5.10152 15.5654,-6.14066 18.49219,-5.04883 2.02678,0.75611 6.25063,1.58555 9.38477,1.8418 3.1342,0.25627 7.21154,0.67318 9.0625,0.92773 1.85095,0.25455 4.815,-0.0399 6.58593,-0.65429 1.77094,-0.61436 3.93429,-0.53406 4.8086,0.17773 0.87429,0.71174 3.46356,0.64415 5.7539,-0.15039 3.1287,-1.08537 4.20313,-2.85682 4.31836,-7.12305 0.14344,-5.30925 0.58438,-5.75058 6.77344,-6.79101 4.77536,-0.80275 7.5378,-2.30504 9.91992,-5.39453 5.18944,-6.73032 11.54813,-10.58304 15.84961,-9.60156 3.17446,0.72429 4.29383,-0.16398 7.09375,-5.63672 1.82825,-3.57344 3.28881,-7.81657 3.2461,-9.42969 -0.0429,-1.61305 1.64783,-4.54755 3.75781,-6.51953 2.10992,-1.97201 5.338855,-5.23768 7.175781,-7.25781 8.798173,-9.67581 16.1183,-16.00023 20.117187,-17.38282 5.244839,-1.81335 15.410681,-11.12078 19.025391,-17.41797 2.392974,-4.16877 2.812127,-5.8998 1.078125,-5.88281 z m 97.523437,86 c -0.284304,0.005 -0.607804,0.065 -0.960937,0.1875 -1.412584,0.49004 -2.312353,1.63301 -1.998047,2.53906 0.314302,0.90601 1.270453,1.40517 2.123047,1.10938 0.852548,-0.29576 1.750462,-1.4388 1.996094,-2.53906 0.184251,-0.82514 -0.307243,-1.31156 -1.160157,-1.29688 z m -4.6875,5.63477 c -1.004422,-0.0631 -2.800432,0.89705 -4.292969,2.35156 -20.520714,19.99836 -25.29421,24.11663 -26.3574214,22.73438 -1.3762405,-1.7892 -5.5437516,-0.79027 -5.7265625,1.37304 -0.0663,0.78431 -2.6544571,5.83886 -5.7519531,11.23047 -4.4446647,7.73649 -6.249627,9.56929 -8.564453,8.70117 -2.271549,-0.85195 -4.397365,0.50893 -9.425781,6.03321 -7.743986,8.50751 -11.455132,10.4165 -8.996094,4.62695 2.003096,-4.71611 1.310947,-7.49482 -1.914063,-7.67578 -1.482316,-0.0832 -0.561596,-3.36131 2.490235,-8.86133 2.664186,-4.80141 4.647845,-9.26288 4.40625,-9.91406 -0.495167,-1.33463 -13.195626,13.1128 -16.13086,18.34961 -2.327047,4.15177 -6.49524,33.47639 -5.292968,37.24218 0.475559,1.4897 -0.438145,6.03641 -2.03125,10.10352 -2.758606,7.04262 -2.84805,12.15352 -0.195313,11.19141 0.67618,-0.24541 3.696334,-5.05037 6.710938,-10.67579 3.993365,-7.45183 6.448661,-10.25313 9.048828,-10.32226 2.392291,-0.0636 4.542178,-1.95249 6.517578,-5.73047 3.548068,-6.78562 21.0381947,-25.18939 25.3828124,-26.70703 1.70514796,-0.59587 5.6657372,-4.45722 8.8027344,-8.58203 3.1369504,-4.1248 6.3395802,-7.72396 7.1171872,-7.99805 0.777607,-0.2741 4.15623,-6.43231 7.507813,-13.68555 3.667156,-7.9361 7.478803,-13.66897 9.570312,-14.39453 1.911492,-0.66311 3.248363,-1.85977 2.970703,-2.66015 -0.277659,-0.80039 0.981117,-2.44981 2.798828,-3.66602 1.817682,-1.21626 2.598194,-2.5538 1.734376,-2.97266 -0.107978,-0.0523 -0.235418,-0.0828 -0.378907,-0.0918 z m -235.234371,19.20508 c -2.20302,0.0522 -4.56344,0.32352 -6.95704,0.83789 -7.67329,1.64891 -8.19948,2.00397 -5.15039,3.48242 1.86796,0.90575 6.88935,1.07362 11.15821,0.37109 6.72304,-1.10639 7.95002,-0.73526 9.16992,2.78125 0.77459,2.23286 2.30384,4.75858 3.39844,5.61133 1.30469,1.0165 0.23836,3.74411 -3.09571,7.91992 -2.79711,3.50325 -5.29513,7.30627 -5.55078,8.45117 -0.25558,1.14489 -2.72268,2.86489 -5.48242,3.82227 -2.85024,0.98877 -7.44211,4.97308 -10.62891,9.22461 -3.08563,4.11677 -7.51184,9.48845 -9.83593,11.93555 -3.89179,4.09776 -4.45187,4.29244 -7.09766,2.46093 -1.58,-1.09379 -3.33887,-1.82837 -3.9082,-1.63086 -2.26966,0.78737 -11.45177,23.55608 -10.55664,26.18164 0.56113,1.64965 -2.6576,7.43963 -7.79883,14.02735 -6.95546,8.91246 -8.59915,12.34561 -8,16.70703 0.54625,3.97614 -0.16575,5.80826 -2.58203,6.64648 -3.33827,1.15805 -4.49325,-0.0282 -5.88867,-6.04687 -0.63131,-2.72304 -1.39896,-2.78328 -5.00196,-0.39844 -2.34067,1.54934 -6.9758,4.0134 -10.30078,5.47656 -3.32494,1.46344 -6.69603,3.71848 -7.49023,5.01172 -0.79425,1.29324 -5.76281,3.63108 -11.04102,5.19532 -9.15813,2.71396 -9.49693,2.99748 -7.41797,6.17187 1.78299,2.72251 1.0523,4.75847 -4.02929,11.2207 -6.75058,8.58478 -19.92212,35.60695 -25.96485,53.26758 -5.77734,16.88508 -9.87893,57.50283 -6.74023,66.74805 0.67548,1.98973 0.64539,4.33275 -0.0664,5.20703 -0.71181,0.87428 0.89337,7.89842 3.56836,15.60937 4.68911,13.51692 4.98769,13.95582 8.31641,12.23243 2.32424,-1.20337 5.24654,-8.13905 8.94531,-21.22657 4.47501,-15.83418 8.00354,-23.46765 19.02344,-41.16015 8.46286,-13.58706 18.12703,-26.39842 25.80664,-34.21289 17.08028,-17.38012 19.84329,-19.65376 27.31054,-22.46289 3.60975,-1.35787 8.81771,-4.686 11.57422,-7.39649 6.53675,-6.42765 14.69616,-25.83178 12.96289,-30.82812 -0.73326,-2.11367 -0.75087,-4.5574 -0.0391,-5.43164 0.71181,-0.87432 0.90506,-2.71173 0.42969,-4.08204 -0.47538,-1.3703 -0.13764,-3.98977 0.75,-5.82031 0.88761,-1.83054 1.32014,-4.17546 0.96094,-5.21093 -1.2131,-3.4969 -3.66343,4.34479 -5.6836,18.1875 -1.75148,12.00158 -5.42508,22.49407 -7.51953,21.47851 -0.39769,-0.19283 -0.95802,-3.55012 -1.24609,-7.45898 -0.28805,-3.90875 -0.79739,-10.33269 -1.13086,-14.27735 -0.3335,-3.94465 -0.52626,-9.16577 -0.42969,-11.60156 0.13306,-3.35754 -0.62765,-4.67433 -3.14258,-5.44531 -2.92875,-0.89779 -2.89451,-1.47364 0.28711,-4.91992 1.98205,-2.14696 3.65783,-5.76161 3.72461,-8.03125 0.16295,-5.54045 12.35814,-21.50514 17.89453,-23.42579 4.80755,-1.66775 11.32617,-15.50911 8.7461,-18.57031 -0.8243,-0.97797 4.75145,-7.3744 13.63867,-15.65039 22.85661,-21.28457 35.28121,-34.49423 33.93359,-36.07226 -0.66879,-0.7831 -2.2452,-1.0701 -3.5039,-0.63868 -1.25877,0.43124 -3.44592,-0.62456 -4.86133,-2.3457 -1.41543,-1.72119 -4.40901,-3.42112 -6.65235,-3.77734 -2.24335,-0.35625 -4.27178,-1.87942 -4.50781,-3.38477 -0.48709,-3.10544 -5.68783,-4.91625 -12.29687,-4.75976 z m 78.03515,1.98437 c -1.64605,-0.0543 -4.24299,1.27931 -6.3789,3.54297 -2.73866,2.90236 -24.13624,21.34209 -36.56836,31.51367 -4.74403,3.88139 -9.94335,8.75239 -11.55469,10.82422 -2.76772,3.5586 -1.59145,9.60518 1.52148,7.82031 1.46611,-0.84066 31.7167,-30.31737 43.83985,-42.71875 3.62787,-3.71119 7.64053,-7.11026 8.91601,-7.55273 1.27544,-0.44246 2.0604,-1.54516 1.7461,-2.45117 -0.22252,-0.64143 -0.77328,-0.95386 -1.52149,-0.97852 z m -122.16406,42.07617 c -0.10732,0.0125 -0.2199,0.0404 -0.33984,0.082 -0.95953,0.33287 -1.48814,1.34589 -1.17383,2.25196 0.31431,0.90606 0.8991,1.5332 1.29883,1.39453 0.39958,-0.13862 0.9262,-1.15163 1.17187,-2.25196 0.21496,-0.96278 -0.20578,-1.56432 -0.95703,-1.47656 z m 174.748047,9.74414 c -0.551755,0.0139 -1.215051,0.15296 -1.990235,0.42188 -4.304851,1.49338 -9.450201,12.59902 -6.175781,13.33008 3.689579,0.82371 0.194849,16.42614 -4.007812,17.89453 -8.62108,3.01115 -27.766849,21.03798 -36.958989,34.79883 -1.67029,2.50046 -5.9647,6.05556 -9.54296,7.90039 -5.94008,3.0624 -6.52868,3.04122 -6.78516,-0.23438 -0.25136,-3.20976 -1.09675,-3.30516 -8.01758,-0.9043 -7.56261,2.62353 -21.87484,13.68925 -31.02344,23.98438 -5.67348,6.38464 -6.85307,6.65782 -4.48437,1.03906 2.76209,-6.55196 11.28308,-17.77998 21.11523,-27.82226 9.78482,-9.99387 30.22114,-26.68386 34.48242,-28.16211 1.59307,-0.55265 2.63853,-1.74628 2.32422,-2.65235 -1.28209,-3.69577 -19.44476,6.51166 -33.97851,19.09571 -19.70221,17.05912 -36.39519,41.43173 -32.73047,47.79101 1.52074,2.63887 1.28437,4.87466 -0.83008,7.85156 -9.53559,13.42534 -26.35544,38.76738 -31.40625,47.31641 -16.71651,28.29434 -29.63099,64.50045 -33.39258,93.61914 -1.30644,10.11341 -1.94675,19.644 -1.41992,21.17774 1.45623,4.25215 4.84882,4.16748 7.85156,-0.19727 23.98929,-34.8709 47.61223,-59.7248 95.83203,-100.82422 14.35761,-12.23747 30.04512,-26.22982 34.86133,-31.0957 10.5824,-10.69149 17.00563,-22.66261 14.316409,-26.68164 -1.036399,-1.54893 -1.357889,-3.46364 -0.71289,-4.25586 0.644976,-0.79219 0.770749,-2.60503 0.277343,-4.02735 -0.493405,-1.42227 0.700777,-6.35664 2.654297,-10.96679 3.72169,-8.78325 3.821447,-12.10712 0.330079,-11.02149 -3.926938,1.22079 5.918391,-13.02528 11.015624,-15.93945 2.801564,-1.60173 5.272421,-3.70998 5.490235,-4.68555 0.217799,-0.97553 1.808441,-2.26426 3.535156,-2.86328 1.726757,-0.59902 3.418588,-2.84563 3.759766,-4.99414 0.420506,-2.64854 0.07028,-3.71753 -1.085938,-3.3164 -0.937908,0.32534 -2.173838,-0.76081 -2.748047,-2.41602 -0.850488,-2.45163 -1.988146,-2.52616 -6.136718,-0.39844 l -5.091797,2.61133 3.052734,-5.82813 c 1.679671,-3.205 2.688486,-6.87954 2.242188,-8.16601 -0.500387,-1.44242 1.49891,-3.57838 5.214843,-5.57227 5.441556,-2.91983 6.172458,-4.30162 7.521485,-14.23437 0.821643,-6.04997 2.319485,-12.80432 3.330078,-15.01172 1.980113,-4.32503 1.703439,-6.62099 -0.6875,-6.56055 z m -188.457027,11.84375 c -0.68735,-0.0328 -3.88128,3.15588 -10.24219,10.05664 -11.16813,12.11585 -14.15694,15.17083 -22.45313,22.95703 -3.55889,3.34009 -8.09935,8.80595 -10.08984,12.14649 -3.37817,5.66933 -3.32963,13.02786 0.0781,11.8457 0.83205,-0.28868 4.26285,-5.21687 7.625,-10.95117 3.36217,-5.73422 6.66115,-10.61559 7.33008,-10.84766 0.66898,-0.2321 1.87527,-1.68842 2.67969,-3.23632 0.80438,-1.54791 4.11121,-5.60733 7.34961,-9.02149 10.14628,-10.69704 14.07849,-15.37873 16.39453,-19.51758 1.24953,-2.23292 1.74053,-3.41198 1.32813,-3.43164 z m 67.58007,13.28516 c -0.0682,-0.0215 -0.15338,-0.0159 -0.25586,0.0195 -1.5866,0.54716 -2.68403,1.57645 -2.4375,2.28711 0.24656,0.71074 -1.35267,3.41691 -3.55468,6.01367 -2.20197,2.59676 -5.67146,8.15921 -7.70899,12.36133 -4.04167,8.33548 -4.20893,9.57649 -1.13476,8.39648 3.25579,-1.24956 17.20467,-28.41126 15.09179,-29.07812 z m -107.95312,0.72656 c -0.8405,0.0428 -2.35765,1.06349 -4.44727,3.22461 -6.09591,6.30448 -21.23907,39.34529 -22.1875,48.41211 -1.0219,9.7691 -0.37645,12.83889 2.48828,11.83984 1.13185,-0.39503 2.77793,-5.56298 3.65821,-11.48437 1.53657,-10.33557 10.18559,-31.20707 18.57031,-44.8125 2.83957,-4.60765 3.31879,-7.25105 1.91797,-7.17969 z m 380.734374,6.38867 c -0.698061,0.0424 -1.54283,0.22488 -2.527344,0.56641 -8.980052,3.11528 -31.665115,24.60359 -32.447266,30.73633 -1.51124,11.84882 -16.823464,31.98567 -33.412109,43.93945 -3.525781,2.54068 -9.0099771,8.2705 -12.1875,12.73242 -5.763978,8.0939 -9.4329197,10.91146 -10.4375,8.01563 -0.904467,-2.60723 2.6511471,-8.38241 9.5742188,-15.55274 3.6512547,-3.7816 6.2571889,-7.97654 5.7910156,-9.32031 -1.2992164,-3.74513 -11.3468639,0.48471 -15.1191406,6.36524 -1.7509199,2.72949 -4.9644258,5.80982 -7.1425778,6.84375 -2.178058,1.03407 -4.852473,3.44968 -5.941407,5.36718 -1.088903,1.91743 -3.41253,4.52771 -5.164062,5.80274 -1.751469,1.27506 -4.259996,5.58927 -5.574219,9.58594 -1.314159,3.99666 -3.312138,7.4289 -4.439453,7.62695 -1.127347,0.19793 -3.962803,1.6853 -6.300781,3.30664 -2.529116,1.75389 -4.906113,2.439 -5.871094,1.69141 -4.246843,-3.28971 -10.008299,-2.55647 -14.998047,1.90624 -2.72863,2.44041 -5.14993,5.28199 -5.380859,6.31641 -0.384435,1.72173 -22.573175,26.45464 -24.257813,27.03906 -0.401968,0.13943 -0.188637,-2.50856 0.47461,-5.88281 2.169369,-11.03679 14.408083,-26.07597 27.947265,-34.3418 2.33785,-1.4273 3.557655,-3.15863 2.708985,-3.8496 -4.070771,-3.3142 -19.212462,7.05204 -28.640625,19.60937 -6.391144,8.51244 -11.057152,24.09212 -8.626953,28.80273 1.373374,2.66211 -0.583591,6.89277 -9.164058,19.81641 -23.80883,35.86027 -46.27468,61.97874 -71.95118,83.64844 -6.51125,5.49513 -12.52705,11.11293 -13.36914,12.48437 -0.8421,1.37148 -0.77549,3.95788 0.14844,5.74805 4.79597,9.29401 59.00471,-2.36672 86.38477,-18.58203 8.605969,-5.09677 32.848942,-21.74181 50.580074,-34.72656 1.564603,-1.14577 7.651404,-6.91804 13.52539,-12.82813 9.074669,-9.13051 11.437685,-10.72351 15.71875,-10.59765 6.468767,0.19022 19.8662944,-6.38657 32.0429691,-15.73047 9.7895009,-7.51204 11.3650339,-11.00051 4.3457029,-9.62696 -3.7030493,0.72458 -3.5942309,0.15617 1.322266,-6.82617 9.535004,-13.54144 18.867136,-35.91805 15.632812,-37.48633 -0.560407,-0.27174 -3.53275,5.09116 -6.605468,11.91797 -6.418149,14.25944 -13.3026464,24.15135 -24.8007816,35.64063 -11.9301854,11.92097 -19.7425804,17.71086 -22.2558594,16.49218 -1.373609,-0.66591 -1.438582,-1.28075 -0.181641,-1.71679 2.233841,-0.77492 4.899518,-4.77557 12.59375,-18.90235 6.2366256,-11.45076 6.3768768,-17.90284 0.748047,-34.17382 -3.444188,-9.95479 -3.508219,-11.24116 -0.611328,-12.2461 3.755087,-1.30265 5.9318839,-9.74117 2.501953,-9.69922 -2.678316,0.0325 -3.731993,-2.79267 -1.349609,-3.61914 0.989694,-0.34333 3.1686882,-2.75982 4.8437499,-5.37109 1.7652945,-2.75191 5.5492503,-5.62151 9,-6.82227 3.8526366,-1.34165 7.9650946,-4.71863 11.6562501,-9.57226 5.619169,-7.38856 10.437528,-10.92037 9.564453,-7.00977 -0.786328,3.52195 2.350732,1.19067 11.636719,-8.65039 9.246017,-9.79884 13.315991,-12.52044 14.333984,-9.58594 1.082854,3.12144 6.917527,-0.56594 10.554688,-6.66992 2.004975,-3.36487 2.995802,-7.23825 2.201171,-8.60742 -1.312365,-2.26137 7.908334,-19.45953 11.136719,-20.77148 2.202459,-0.89511 9.282754,-14.09511 7.916016,-14.75782 -0.720605,-0.34938 -3.785167,1.94321 -6.810547,5.09375 -6.807341,7.08904 -7.925682,7.54275 -5.541016,2.24805 1.746501,-3.87772 7.480229,-10.99846 16.1875,-20.10156 3.30884,-3.45924 3.062039,-5.89856 0.03711,-5.71485 z m -137.660156,4.35547 c -1.098927,-0.43999 -6.335859,6.87978 -10.251954,14.47461 -2.90361,5.63138 -12.021505,17.52512 -18.960937,24.73438 -2.798124,2.90694 -4.872253,5.91047 -4.607422,6.67382 0.659641,1.90152 0.583263,1.95576 8.904297,-6.33203 14.381019,-14.32365 26.930377,-34.01808 25.078125,-39.35742 -0.03487,-0.10052 -0.08885,-0.16402 -0.162109,-0.19336 z m -152.720708,23.19531 c -1.94651,-0.27096 -9.04347,8.73865 -13.35937,17.30274 -4.18348,8.30147 -5.195,14.02093 -2.30274,13.01758 1.54904,-0.53734 9.80902,-13.08642 9.92188,-15.07422 0.0521,-0.91748 1.57286,-4.31678 3.37891,-7.55274 1.80611,-3.23595 3.06144,-6.52121 2.79101,-7.30078 -0.0824,-0.23742 -0.22832,-0.36454 -0.42969,-0.39258 z m 158.501958,10.53711 c -0.04985,-0.004 -0.106623,0.006 -0.173829,0.0293 -0.664732,0.23063 -7.86519,9.25073 -16,20.04688 -8.134873,10.79607 -17.779154,22.98604 -21.43164,27.08789 -3.652502,4.1018 -7.954101,9.05681 -9.560547,11.00976 -4.557604,5.5406 -2.549033,7.36479 4.041016,3.66992 16.395787,-9.19283 38.355556,-29.16813 53.789062,-48.92773 10.75128,-13.76493 6.92267,-11.73508 -10.46875,5.55078 -7.938168,7.88999 -15.370062,14.35598 -16.515625,14.37109 -1.14556,0.0139 0.914746,-4.39267 4.578125,-9.79101 6.629344,-9.7691 13.287658,-22.91315 11.742188,-23.04688 z m -225.730468,1.33204 c 2.74958,-0.063 3.81981,1.35031 4.88672,4.42578 1.13715,3.27798 1.99657,3.71128 4.1582,2.09765 5.26914,-3.93331 14.49479,6.47939 14.86719,16.78125 0.31018,8.58029 -1.09916,10.61015 -16.93555,24.38672 -7.40775,6.44429 -13.95081,12.59936 -14.54101,13.67774 -0.59024,1.07845 -2.40818,2.42252 -4.03907,2.98828 -1.63089,0.56575 -2.73862,1.68394 -2.46093,2.48437 0.27764,0.80032 -0.97564,2.56969 -2.78711,3.93164 -2.94722,2.21579 -2.94273,2.44893 0.043,2.21875 1.83517,-0.14146 3.86646,-1.34877 4.51368,-2.68359 1.47258,-3.03704 5.2689,-4.46319 6.03125,-2.26563 0.31432,0.90607 -0.22097,1.92257 -1.1875,2.25782 -0.96649,0.33528 -3.54261,3.30424 -5.72657,6.59961 -2.18394,3.29533 -4.57746,6.20197 -5.31836,6.45898 -2.68054,0.92992 -24.8548,35.36727 -30.0371,46.64844 -2.92023,6.35701 -6.46629,17.40087 -7.87891,24.54297 -1.41265,7.14217 -3.21144,13.20954 -3.99805,13.48242 -3.65823,1.26905 -8.3796,-29.82669 -7.32031,-48.21485 1.25998,-21.87212 4.33039,-37.05734 11.23633,-55.58398 12.55069,-33.66992 28.87589,-55.37779 46.24414,-61.49609 4.95818,-1.74666 8.11144,-2.6893 10.25,-2.73828 z m 134.46875,15.35351 c 11.11288,0.0168 18.30127,6.17102 15.04687,12.88281 -1.41408,2.91629 1.29945,5.61581 4.52149,4.49805 3.53131,-1.22502 6.12799,3.6961 6.58594,12.47852 0.38422,7.36853 -0.22132,8.58697 -7.33789,14.75195 -4.26651,3.69592 -10.44294,8.55811 -13.72461,10.80273 -13.092,8.95469 -21.46639,15.56378 -21.83985,17.23633 -0.21617,0.9682 -2.2024,2.38901 -4.41406,3.15625 -2.21161,0.76721 -3.76548,2.13495 -3.45117,3.04102 0.70741,2.0392 8.46571,-0.4763 9.01172,-2.92188 0.21853,-0.97874 2.68359,-2.9947 5.47656,-4.48047 2.7931,-1.48558 9.12228,-5.40428 14.06641,-8.70898 21.35984,-14.27698 15.75181,-7.46677 -16.58399,20.13867 -41.26897,35.23174 -63.41494,57.30821 -82.31445,82.0586 -6.13887,8.03935 -11.56688,14.42201 -12.0625,14.18164 -0.49544,-0.24027 -0.0138,-6.74098 1.07031,-14.44532 2.29286,-16.29346 9.37339,-40.29778 17.56445,-59.55273 8.6632,-20.3647 44.43943,-75.71914 57.63672,-89.17774 7.0332,-7.17244 23.96373,-15.95079 30.74805,-15.93945 z m 38.693358,2.21094 c 0.344261,0.0281 0.642162,0.28392 0.808594,0.76367 0.332867,0.95955 -0.13691,2.00195 -1.042969,2.31641 -0.906013,0.31434 -1.759763,0.24542 -1.898433,-0.1543 -0.13861,-0.39953 0.32924,-1.44216 1.04101,-2.31641 0.3559,-0.43712 0.747537,-0.63745 1.091798,-0.60937 z m -193.634768,2.49414 c -7.99097,0.25633 -20.39745,14.69255 -29.0332,34.67969 -4.52104,10.46369 -7.01242,21.27132 -9.93359,43.09961 -2.5747,19.23915 -3.23799,31.03625 -1.95508,34.73437 1.06849,3.08001 2.23862,5.4962 2.59961,5.37109 0.3612,-0.12529 1.44078,-5.568 2.40039,-12.0957 7.38944,-50.2696 14.77735,-69.80488 36.43554,-96.33984 4.77489,-5.85007 5.1611,-7.12665 2.61719,-8.66602 -0.93748,-0.56726 -1.98929,-0.81982 -3.13086,-0.7832 z m 452.09571,6.45703 c -3.85471,0.24789 -14.02371,8.74609 -18.98438,17.99805 -2.68075,4.99978 -5.85209,9.42928 -7.04687,9.84375 -1.19479,0.4145 -5.33045,4.70903 -9.18946,9.54297 -4.40631,5.51958 -7.79972,8.41226 -9.12109,7.77734 -5.89187,-2.83121 -8.79799,2.39935 -19.017579,34.21484 -4.197313,13.067 -8.213683,18.2452 -16.205079,20.89454 -4.391433,1.45583 -10.407707,5.74182 -17.072265,12.1621 -11.124151,10.71629 -11.904771,11.28062 -12.646485,9.14258 -0.270531,-0.77987 3.113495,-5.31013 7.519532,-10.0664 7.852649,-8.47695 10.045311,-12.21136 7.80664,-13.29688 -1.97105,-0.95573 -15.121022,10.2289 -17.630859,14.9961 -1.331388,2.52929 -3.404137,4.38005 -4.607422,4.11132 -4.431692,-0.98944 -12.201299,7.10385 -13.832031,14.40821 -0.887677,3.97583 -2.208266,6.45685 -2.933594,5.51367 -3.647687,-4.74221 -11.611664,4.97296 -9.371094,11.43164 0.891411,2.56959 -0.493372,6.51804 -4.308593,12.28125 -6.0713272,9.17136 -7.462636,10.29853 -9.478516,7.67773 -0.9953924,-1.29278 -2.98958758,-0.59435 -8.3554688,2.92578 -5.5301842,3.62801 -7.9091012,4.42581 -11.0507812,3.70899 -3.261389,-0.74415 -5.798473,0.28988 -13.689453,5.57812 -11.647947,7.80598 -18.519804,16.08075 -27.402344,33.00196 -8.204659,15.62986 -13.284337,23.07332 -22.02539,32.27148 -18.864227,19.85084 -38.847508,33.20586 -65.173828,43.55859 -11.16544,4.39072 -21.12763,8.5909 -22.13867,9.33399 v -0.002 c -4.35261,3.19816 0.67063,5.90775 14.08789,7.59765 13.59649,1.71247 24.95832,1.60887 43.31445,-0.39843 11.389619,-1.24547 51.973363,-14.17928 58.166017,-18.53711 2.855686,-2.00958 8.5887,-5.8389 12.738281,-8.50782 22.539757,-14.49694 41.4592517,-40.91376 49.097656,-68.55273 1.710424,-6.18894 5.283485,-13.56219 7.960938,-16.43164 5.469616,-5.8619 5.415208,-11.42945 -0.07227,-7.44141 -9.2509543,6.72318 -10.2749959,2.29726 -1.919922,-8.29687 6.772341,-8.5872 8.46974,-10.13259 16.708985,-15.20899 2.636826,-1.62459 3.826652,-3.82765 3.371093,-6.24023 -1.085327,-5.74632 16.732204,-27.40338 25.035157,-30.42969 10.689966,-3.89647 52.462035,-48.468 50.560555,-53.94922 -0.63834,-1.8401 0.40434,-2.6091 4.13867,-3.05078 3.63961,-0.43041 5.90275,-2.0123 8.35937,-5.8418 3.1463,-4.90484 4.0362,-5.33987 13.44532,-6.57226 10.61675,-1.39049 18.26818,-5.63724 21.63085,-12.00586 2.43755,-4.61662 -0.39547,-4.77 -6.76562,-0.36719 -7.31065,5.05274 -25.60896,11.45992 -27.75,9.7168 -2.30266,-1.87469 17.91728,-20.92644 24.71094,-23.2832 4.02121,-1.39499 6.39585,-3.74056 8.55664,-8.45118 2.63613,-5.747 2.60754,-6.53082 -0.23242,-6.62304 -1.77202,-0.0576 -3.76915,1.0258 -4.43946,2.4082 -1.40758,2.9029 -3.65038,4.01527 -4.30273,2.13476 -0.24654,-0.71066 1.40149,-3.47274 3.66211,-6.13867 2.26066,-2.66596 5.02903,-6.74193 6.15234,-9.05859 1.93977,-4.00051 1.49237,-5.59314 -0.25976,-5.48047 z m -313.18165,13.36133 c -5.76339,0.32241 -16.37013,9.94016 -29.75,27.22266 -17.72431,22.89407 -41.00783,64.42647 -46.99218,83.82421 -1.60538,5.2037 -2.87163,9.65201 -2.81641,9.88672 0.33723,1.4081 3.09588,-1.08432 4.97461,-4.49414 22.90874,-41.57839 35.31254,-59.0203 62.35352,-87.68359 12.90739,-13.6817 18.55993,-23.75147 15.42187,-27.47461 -0.78864,-0.9357 -1.86139,-1.35565 -3.19141,-1.28125 z m -68.58203,3.30469 c -0.32439,0.0188 -0.66414,0.0852 -1.0039,0.20312 -1.35907,0.47146 -2.2147,1.59792 -1.90039,2.50391 0.31432,0.90621 1.6839,1.26247 3.04297,0.79101 1.35906,-0.47146 2.21469,-1.59784 1.90039,-2.5039 -0.23573,-0.67958 -1.0659,-1.05061 -2.03907,-0.99414 z m -32.69531,4.04687 c 0.69805,-0.008 0.4689,0.54679 -0.5,1.78711 -1.05437,1.34978 -2.4679,2.65838 -3.14258,2.9082 -0.67472,0.2496 -1.48452,-0.28729 -1.79882,-1.19336 -0.31431,-0.90599 1.10107,-2.215 3.14453,-2.9082 1.12663,-0.38226 1.87804,-0.58922 2.29687,-0.59375 z m 27.8125,1.47656 c -1.7201,0.13554 -5.10913,2.39465 -11.90234,7.63086 -6.16397,4.75117 -10.87857,7.12079 -16.10742,8.09961 -6.71918,1.25794 -7.28144,1.70255 -6.1836,4.86719 0.84526,2.437 2.34778,3.1717 5.00391,2.45117 9.34013,-2.53379 13.31669,-5.15221 22.39258,-14.74023 1.97174,-2.08301 4.76901,-4.19764 6.21484,-4.69922 1.44578,-0.50154 2.37095,-1.65257 2.05664,-2.5586 -0.25523,-0.73573 -0.69274,-1.11239 -1.47461,-1.05078 z m -37.33594,5.60157 c 0.97974,-0.007 1.73325,0.29503 1.92969,0.86132 0.31432,0.90607 -0.91058,2.16042 -2.72265,2.78907 -1.81213,0.62861 -3.55289,0.40216 -3.86719,-0.50391 -0.31432,-0.90607 0.91249,-2.16237 2.72461,-2.79101 0.67953,-0.23573 1.3477,-0.35107 1.93554,-0.35547 z m -8.84961,6.59179 c 0.97317,-0.0564 1.80334,0.31267 2.03907,0.99219 0.31432,0.90607 -0.54132,2.03241 -1.90039,2.50391 -1.35907,0.47146 -2.72867,0.11696 -3.04297,-0.78907 -0.31431,-0.90602 0.54132,-2.03241 1.90039,-2.5039 0.33977,-0.11787 0.67952,-0.18432 1.0039,-0.20313 z m 181.208989,10.70508 c -0.819645,-0.14372 -3.108021,0.81243 -6.511719,2.75391 -3.98874,2.2752 -11.36803,6.043 -16.39648,8.37304 -7.76849,3.59966 -8.97071,4.73094 -8.00196,7.52344 1.05341,3.03659 1.83091,2.94962 10.21289,-1.15234 9.10786,-4.4572 20.222782,-13.43983 21.013675,-16.98242 0.06627,-0.29676 -0.04319,-0.46772 -0.316406,-0.51563 z m -200.658199,5.50586 c -0.31788,-0.0106 -0.8482,0.0905 -1.57813,0.31055 v 0.002 c -1.76155,0.53095 -2.59866,1.25769 -1.86133,1.61524 0.73724,0.35739 2.17708,-0.0784 3.20117,-0.9668 0.70733,-0.61366 0.76808,-0.94321 0.23829,-0.96094 z m 245.236324,18.24609 c 4.699777,-0.0551 9.471573,0.74495 12.091797,2.42579 5.576881,3.57743 6.507793,5.53942 3.175781,6.69531 -3.463791,1.20162 -1.781919,4.79678 3.972656,8.48828 l 4.884766,3.13281 -4.935547,11.11133 c -5.288492,11.90287 -21.364046,34.166 -33.916016,46.9707 -5.376321,5.48463 -6.568094,7.4773 -3.951172,6.61133 2.060795,-0.68307 4.805941,-2.34334 6.101563,-3.68945 1.295671,-1.34612 4.231075,-4.2223 6.523437,-6.39258 7.683893,-7.27461 21.916818,-26.12475 26.861329,-35.57617 2.693489,-5.14874 5.494177,-9.84612 6.224609,-10.4375 3.274037,-2.64998 0.665624,8.08502 -4.664063,19.19336 -6.618358,13.79406 -25.535014,33.92604 -44.402343,47.2539 -6.114743,4.31944 -13.114247,9.27987 -15.554688,11.02344 -22.474193,16.05691 -62.584423,32.1524 -86.269533,34.61914 -7.1028,0.73977 -13.12277,0.74224 -13.3789,0.004 -0.25615,-0.73837 5.44042,-6.45999 12.66015,-12.71485 24.037,-20.8247 48.1246,-47.9687 65.75977,-74.10156 19.344334,-28.66564 24.113859,-33.35194 13.683591,-13.44922 -6.739611,12.8603 -5.040308,13.84687 2.888672,1.67774 8.567921,-13.14973 27.219153,-37.62739 30.585938,-40.14063 2.329445,-1.73884 6.958425,-2.64994 11.658203,-2.70508 z m -118.408204,2.11719 c -0.22593,-0.0153 -0.45709,0.0133 -0.68359,0.0918 -0.90608,0.31434 -1.39048,1.31268 -1.07617,2.21875 0.3143,0.90614 1.31269,1.39063 2.21874,1.07617 0.90601,-0.3143 1.39048,-1.31272 1.07618,-2.21875 -0.23574,-0.67966 -0.85738,-1.12193 -1.53516,-1.16797 z m 109.748048,21.85742 c -3.684876,-0.18489 -7.878892,3.66208 -12.955079,11.83789 -11.436948,18.42067 -40.233709,51.17614 -60.214839,68.49219 -3.51202,3.04362 -8.44989,7.44433 -10.97266,9.78125 -2.52282,2.33688 -5.67361,4.62705 -7.00195,5.08789 -1.32835,0.46084 -2.15806,1.57831 -1.84375,2.48438 0.69055,1.99056 9.35484,-0.77175 10.88476,-3.47071 0.59824,-1.05535 7.04655,-6.29366 14.32813,-11.63867 24.51913,-17.9983 30.682865,-23.07511 44.498044,-36.65234 21.407017,-21.03836 33.090895,-42.49611 24.826172,-45.5957 -0.506797,-0.19007 -1.022418,-0.29976 -1.548828,-0.32618 z m 44.611328,65.11133 c -0.450342,-0.0253 -1.761087,0.39316 -4.082032,1.14453 -2.965931,0.96019 -5.134633,2.48652 -4.820312,3.39258 0.314319,0.90607 -1.387285,2.32773 -3.78125,3.1582 -1.787272,0.62003 -5.900358,3.00224 -10.208984,5.85157 l 4.234374,2.30078 c 0.155441,-0.16398 0.807552,-0.81775 0.882813,-0.90235 1.268131,-1.42548 3.436636,-2.9848 4.820313,-3.46484 1.383676,-0.48 3.572016,-1.98508 4.863281,-3.34375 1.291328,-1.35866 3.935239,-3.87982 5.875,-5.60351 1.951623,-1.73426 2.795807,-2.50071 2.216797,-2.53321 z m -59.873047,0.73047 c -0.419184,-0.0213 -1.361796,0.19134 -2.726563,0.64648 -2.729718,0.90936 -3.922186,1.70724 -2.65039,1.77149 1.271958,0.0646 3.504873,-0.6808 4.96289,-1.6543 0.729001,-0.48667 0.833246,-0.74235 0.414063,-0.76367 z m 31.416015,1.88086 c -0.378125,0.038 -1.054273,0.38101 -2.003906,0.96289 -1.34062,0.82142 -2.796737,2.03468 -4.296875,3.52539 l 3.285156,1.78516 c 3.049573,-4.59048 3.942814,-6.36657 3.015625,-6.27344 z m -41.339843,5.16016 c -0.425477,-0.0211 -1.256108,0.16178 -2.388672,0.55468 -2.265128,0.78581 -3.062666,1.48067 -1.771485,1.54493 1.291132,0.0643 3.145145,-0.57765 4.119141,-1.42774 0.487022,-0.4248 0.466493,-0.65075 0.04102,-0.67187 z m 130.951171,7.6914 c -0.328429,0.0259 -0.881509,0.70638 -1.414062,1.80469 -0.710117,1.46442 -2.293596,3.01027 -3.519531,3.43555 -3.240998,1.12433 -8.781756,9.03275 -25.519531,36.42578 -9.3705541,15.3357 -14.37907,25.27878 -13.5039068,26.80469 3.2483146,5.66279 23.3857738,-5.21691 40.0722658,-21.64844 15.103079,-14.87233 18.913217,-23.29602 4.666015,-10.31641 -10.791189,9.83112 -23.913611,19.3437 -29.228515,21.1875 -4.818376,1.6715 -4.703652,1.21075 3.607422,-14.2832 4.723215,-8.80536 12.382091,-21.89157 17.019531,-29.08008 4.63739,-7.18847 8.266544,-13.5464 8.064453,-14.12891 -0.05052,-0.14562 -0.134664,-0.20979 -0.244141,-0.20117 z m -67.574218,14.86328 c 4.617555,-0.0747 10.2961805,1.33927 12.0136716,3.37696 4.3169348,5.12186 -8.1942726,36.86178 -21.3417966,54.14258 -2.696519,3.54425 -4.015386,6.43503 -2.931641,6.41992 5.159299,-0.0628 28.7188236,-40.44666 26.8085939,-45.95313 -0.2889827,-0.83301 0.2150331,-1.77148 1.1210937,-2.08594 5.8445876,-2.02752 2.14592901,19.69086 -5.8554687,34.38086 -20.2838779,37.23988 -71.5087679,62.62729 -127.3496069,63.11719 -18.77107,0.16464 -18.19164,-1.33076 4.33984,-11.19922 25.37793,-11.11521 45.371943,-26.9218 64.496095,-50.98828 5.6426,-7.10086 11.277376,-12.87676 12.523437,-12.83594 1.423624,0.0462 1.566134,-0.75621 0.382813,-2.16015 -1.504414,-1.78496 -1.03598,-2.25808 2.328125,-2.34766 3.450266,-0.0918 3.847473,-0.54119 2.203125,-2.49219 -1.274895,-1.51241 -1.216713,-2.20533 0.158203,-1.89843 1.190374,0.26577 4.198305,-3.60659 6.683594,-8.60547 4.320756,-8.69087 13.587973,-17.92465 20.341797,-20.26758 1.117842,-0.38779 2.53894,-0.57863 4.078125,-0.60352 z m -14.853516,24.90625 c -0.598208,0.0352 -1.294438,0.18628 -2.091797,0.46289 -2.539706,0.88105 -7.291844,6.81254 -12.808593,15.98829 -4.824212,8.02386 -11.973189,18.45345 -15.886719,23.17578 -7.540985,9.09947 -24.037861,22.68699 -34.09961,28.08593 -8.592789,4.61073 -6.573979,6.64588 3.220703,3.24805 10.308719,-3.57619 28.65575,-15.89287 37.908204,-25.44922 19.801479,-20.45172 32.730929,-46.03973 23.757812,-45.51172 z"
         style="display:inline;opacity:1;fill:#001564;fill-opacity:1;stroke:none;stroke-width:1.7436744;stroke-opacity:1" />
    </g>
  </g>
  <g
     inkscape:groupmode="layer"
     id="layer1"
     inkscape:label="W_Exterior"
     style="display:none"
     sodipodi:insensitive="true"
     transform="translate(-18.641928,-36.482528)">
    <path
       style="color:#000000;font-style:normal;font-variant:normal;font-weight:normal;font-stretch:normal;font-size:medium;line-height:normal;font-family:sans-serif;font-variant-ligatures:normal;font-variant-position:normal;font-variant-caps:normal;font-variant-numeric:normal;font-variant-alternates:normal;font-feature-settings:normal;text-indent:0;text-align:start;text-decoration:none;text-decoration-line:none;text-decoration-style:solid;text-decoration-color:#000000;letter-spacing:normal;word-spacing:normal;text-transform:none;writing-mode:lr-tb;direction:ltr;text-orientation:mixed;dominant-baseline:auto;baseline-shift:baseline;text-anchor:start;white-space:normal;shape-padding:0;clip-rule:nonzero;display:inline;overflow:visible;visibility:visible;opacity:1;isolation:auto;mix-blend-mode:normal;color-interpolation:sRGB;color-interpolation-filters:linearRGB;solid-color:#000000;solid-opacity:1;vector-effect:none;fill:#001564;fill-opacity:1;fill-rule:nonzero;stroke:none;stroke-width:60;stroke-linecap:butt;stroke-linejoin:round;stroke-miterlimit:4;stroke-dasharray:none;stroke-dashoffset:0;stroke-opacity:1;paint-order:stroke fill markers;color-rendering:auto;image-rendering:auto;shape-rendering:auto;text-rendering:auto;enable-background:accumulate"
       d="m -118.19922,137.88672 a 30.003,30.003 0 0 0 -29.1289,22.8164 l -13.76758,55.86719 c -2.00987,-8.52575 -4.43353,-18.96821 -6.06055,-25.76367 -1.85807,-7.76045 -3.41405,-14.18624 -4.58398,-18.89648 -0.58497,-2.35512 -1.06882,-4.26588 -1.47657,-5.81836 -0.40774,-1.55248 0.88297,0.76027 -1.91211,-6.08985 a 30.003,30.003 0 0 0 -0.006,-0.008 c -5.99138,-14.66902 -14.8269,-16.30074 -18.85351,-17.75976 -4.02661,-1.45902 -6.5336,-1.82126 -9.08008,-2.19922 -5.09297,-0.75593 -10.04775,-1.03037 -16.70508,-1.26368 -13.31465,-0.46662 -32.82349,-0.4764 -61.99414,-0.18359 l -77.11719,0.77539 a 30.003,30.003 0 0 0 -28.91601,36.80469 l 56.18359,241.13086 c 30.90213,132.62313 59.34698,254.62264 63.30664,271.49805 l 7.11719,30.33203 a 30.003,30.003 0 0 0 29.22461,23.15039 l 58.87891,-0.0391 58.87695,-0.0293 a 30.003,30.003 0 0 0 29.136718,-22.95117 l 24.449219,-101.11719 26.765625,101.69336 a 30.003,30.003 0 0 0 28.9960936,22.36718 l 58.8183594,0.0293 58.828125,0.0391 a 30.003,30.003 0 0 0 29.29687,-23.48242 L 176.81836,562.7207 c 19.10563,-85.82566 46.42582,-208.32061 60.70117,-272.16992 l 25.96289,-116.125 a 30.003,30.003 0 0 0 -29.27734,-36.53906 h -77.8125 -77.820314 a 30.003,30.003 0 0 0 -29.216797,23.20117 l -7.744141,33.28516 c -1.109371,4.76773 -3.331201,15.00457 -4.878906,21.83593 L 22.412109,160.42383 A 30.003,30.003 0 0 0 -6.6445312,137.88672 H -62.421875 Z m -0.002,29.99609 h 55.777342 55.7792968 L 15.728516,255.0332 c 12.305448,47.93221 22.92925,86.20954 23.607422,85.06055 0.678489,-1.14907 6.299767,-25.38857 12.492187,-53.86523 6.192488,-28.47678 14.744333,-66.75419 19.003906,-85.06055 l 7.744141,-33.28516 h 77.814448 77.81641 l -25.96289,116.12696 c -14.27979,63.86918 -41.59718,186.35455 -60.70508,272.1914 l -34.74218,156.06836 -58.822271,-0.0352 -58.8222652,-0.0332 -28.0820318,-106.68945 c -15.445364,-58.67758 -28.71565,-105.59157 -29.490234,-104.25195 -0.774603,1.33972 -12.750054,49.35165 -26.611328,106.69335 l -25.20117,104.25782 -58.87696,0.0332 -58.875,0.0332 -7.11523,-30.33398 c -3.91364,-16.67928 -32.39938,-138.83309 -63.30078,-271.45313 l -56.18359,-241.1289 77.11914,-0.77344 c 58.03866,-0.58259 77.47608,0.1016 78.55859,2.75195 0.79113,1.93888 9.95845,40.23049 20.37305,85.09375 10.41461,44.86339 19.49469,82.48393 20.17773,83.60157 0.68289,1.11824 10.89852,-37.15769 22.69922,-85.0586 z"
       id="path907"
       transform="scale(0.26458333)"
       inkscape:connector-curvature="0" />
  </g>
  <g
     inkscape:groupmode="layer"
     id="layer5"
     inkscape:label="Claw_TEAR"
     style="display:none;opacity:1"
     sodipodi:insensitive="true"
     transform="translate(-18.641928,-36.482528)">
    <path
       style="display:inline;opacity:1;fill:#ffffff;fill-opacity:1;stroke:#000000;stroke-width:0.5291667;stroke-linecap:butt;stroke-linejoin:miter;stroke-miterlimit:4;stroke-dasharray:none;stroke-opacity:1"
       d="m -12.528684,174.91676 c 2.7513196,-2.8755 9.7042082,-6.94787 12.00635978,-5.66817 2.05945092,1.14478 3.06647952,3.88782 2.22715022,8.93202 -2.58835077,15.55545 -26.954259,28.343 -45.333872,23.11103 20.228393,-4.76322 30.041889,-22.36337 31.100362,-26.37488 z"
       id="path4858"
       inkscape:connector-curvature="0"
       sodipodi:nodetypes="csscc" />
    <path
       sodipodi:nodetypes="csscc"
       inkscape:connector-curvature="0"
       id="path4855"
       d="m -18.504979,140.36647 c 1.535243,-1.5191 6.391318,-5.52867 10.8237595,-2.21197 4.324444,3.23587 6.113634,9.21541 2.5772529,14.42351 -6.0100784,8.85118 -27.7499564,28.96101 -44.9389444,24.85352 16.722663,-12.17155 28.032063,-34.64105 31.537932,-37.06506 z"
       style="display:inline;opacity:1;fill:#ffffff;fill-opacity:1;stroke:#ffffff;stroke-width:0.5291667;stroke-linecap:butt;stroke-linejoin:miter;stroke-miterlimit:4;stroke-dasharray:none;stroke-opacity:1" />
    <path
       style="display:inline;opacity:1;fill:#ffffff;fill-opacity:1;stroke:#fefefe;stroke-width:0.5291667;stroke-linecap:butt;stroke-linejoin:miter;stroke-miterlimit:4;stroke-dasharray:none;stroke-opacity:1"
       d="m -41.236252,119.1319 c 1.535243,-1.5191 5.362329,-3.2836 9.794771,0.0331 4.324444,3.23587 4.991102,7.99933 1.454721,13.20743 -6.010078,8.85118 -25.598437,20.16784 -35.490966,36.45301 -1.237849,-23.58396 20.735605,-47.26953 24.241474,-49.69354 z"
       id="path4852"
       inkscape:connector-curvature="0"
       sodipodi:nodetypes="csscc" />
    <path
       sodipodi:nodetypes="csscc"
       inkscape:connector-curvature="0"
       id="path4849"
       d="m -88.231892,160.55249 c 0,0 -9.422608,-22.7879 10.380194,-44.02492 1.47292,-1.5796 4.894608,-4.78031 9.32705,-1.46361 4.324444,3.23587 6.313519,9.7565 2.675498,12.79921 -14.787862,7.65833 -19.416431,24.04711 -22.382742,32.68932 z"
       style="display:inline;opacity:1;fill:#ffffff;fill-opacity:1;stroke:#ffffff;stroke-width:0.5291667;stroke-linecap:butt;stroke-linejoin:miter;stroke-miterlimit:4;stroke-dasharray:none;stroke-opacity:1" />
    <path
       style="fill:#001564;fill-opacity:1;stroke:none;stroke-width:0.46134719;stroke-opacity:1"
       d="m -91.168718,153.33575 c 0.18833,-0.23132 0.196192,-0.85131 0.01747,-1.37776 -0.830447,-2.44613 0.254821,-13.1927 1.78341,-17.66021 1.598804,-4.67271 5.083818,-11.82218 6.869909,-14.09357 1.344505,-1.7098 1.538122,-2.24889 1.066373,-2.96922 -0.55006,-0.83989 -0.460361,-0.9145 1.962728,-1.63257 1.396526,-0.41387 2.711065,-1.0324 2.92121,-1.37457 0.210133,-0.34217 1.101836,-0.93891 1.981561,-1.32611 0.879733,-0.38713 2.106195,-1.03938 2.725497,-1.44931 0.953294,-0.63099 1.15627,-0.61477 1.323304,0.1057 0.369206,1.59245 0.675071,1.90606 1.558321,1.59966 0.639309,-0.22178 0.827632,-0.70658 0.683103,-1.7586 -0.158524,-1.15396 0.276436,-2.06228 2.116735,-4.42037 1.360284,-1.743 2.211914,-3.27467 2.063447,-3.71114 -0.236835,-0.69468 2.192536,-6.718852 2.79305,-6.927175 0.150635,-0.05226 0.615927,0.141754 1.03397,0.431153 0.700031,0.484585 0.848406,0.433154 1.878108,-0.651045 0.614915,-0.647462 1.786005,-2.068377 2.602413,-3.157607 0.843172,-1.124884 2.057907,-2.17934 2.812033,-2.440952 0.730182,-0.253306 1.382956,-0.708402 1.450579,-1.011319 0.06764,-0.302922 0.728486,-1.309161 1.468557,-2.236063 0.882139,-1.104849 1.164236,-1.826602 0.819037,-2.095551 -0.289612,-0.225624 -0.694255,-0.893602 -0.8992,-1.48438 -0.322766,-0.93041 -0.647421,-1.028933 -2.426225,-0.736201 -1.129469,0.185878 -2.457945,0.141886 -2.952176,-0.09776 -0.80674,-0.391174 -0.667447,-0.485383 1.362779,-0.921658 2.533221,-0.544367 4.922145,-0.05762 5.093979,1.037911 0.06245,0.39829 0.599211,0.801261 1.192765,0.895519 0.593549,0.09425 1.38559,0.543949 1.760089,0.999347 0.374495,0.455385 0.953388,0.734621 1.286436,0.620524 0.333032,-0.114147 0.750301,-0.03794 0.927253,0.169253 0.356556,0.417521 -2.931168,3.912144 -8.978647,9.543687 -2.351409,2.18969 -3.826324,3.882482 -3.60823,4.141236 0.682644,0.809941 -1.042225,4.471891 -2.314221,4.913151 -1.464836,0.50817 -4.691491,4.73225 -4.734604,6.19816 -0.01767,0.60051 -0.46119,1.55661 -0.985608,2.12466 -0.841805,0.91183 -0.85067,1.06432 -0.07577,1.30186 0.665409,0.20399 0.866463,0.55248 0.831257,1.44083 -0.02555,0.64447 0.02574,2.0257 0.113977,3.06939 0.08823,1.04369 0.222766,2.7438 0.298978,3.77799 0.07622,1.03422 0.224651,1.92212 0.329874,1.97314 0.554157,0.2687 1.526011,-2.50737 1.989423,-5.68279 0.534503,-3.66255 1.182854,-5.73714 1.50382,-4.81192 0.09504,0.27397 -0.01933,0.8944 -0.254178,1.37873 -0.234855,0.48433 -0.324087,1.17725 -0.198311,1.53981 0.125776,0.36256 0.0746,0.84847 -0.113732,1.0798 -0.188333,0.23131 -0.183689,0.87814 0.01032,1.43738 0.458593,1.32195 -1.700131,6.45598 -3.429644,8.15663 -0.729328,0.71715 -2.107461,1.59786 -3.06254,1.95713 -1.975711,0.74325 -2.706997,1.34467 -7.226156,5.94316 -2.031896,2.06758 -4.588638,5.45727 -6.82777,9.05218 -2.915682,4.68114 -3.849083,6.70076 -5.033095,10.89022 -0.978632,3.46274 -1.752035,5.29781 -2.366992,5.6162 -0.880723,0.45598 -0.959588,0.33981 -2.200248,-3.23654 -0.707758,-2.04019 -1.132746,-3.8987 -0.944413,-4.13002 z m 3.00675,6.03755 c 0.208124,-0.0722 0.684214,-1.67738 1.057977,-3.56708 0.373755,-1.88968 1.311728,-4.81193 2.084372,-6.49389 1.371152,-2.98481 7.238065,-12.09618 7.947293,-12.34222 0.196028,-0.068 0.829183,-0.83702 1.407019,-1.70891 0.577837,-0.8719 1.259837,-1.65784 1.515553,-1.74655 0.255728,-0.0887 0.39691,-0.35743 0.313746,-0.59716 -0.201705,-0.58144 -1.20619,-0.20414 -1.59581,0.59941 -0.171243,0.35317 -0.708614,0.67276 -1.194168,0.71019 -0.789965,0.0609 -0.791163,-8.5e-4 -0.01138,-0.58711 0.479285,-0.36035 0.811322,-0.82846 0.737862,-1.04021 -0.07347,-0.21178 0.219478,-0.50752 0.650985,-0.65721 0.431506,-0.14969 0.91232,-0.50563 1.068486,-0.79097 0.156158,-0.28532 1.887542,-1.91382 3.84751,-3.61887 4.190045,-3.64505 4.562808,-4.18182 4.480739,-6.45202 -0.09853,-2.7257 -2.539301,-5.481 -3.933428,-4.44031 -0.571931,0.42694 -0.799394,0.3122 -1.100266,-0.5551 -0.501841,-1.44661 -1.006757,-1.50291 -4.005279,-0.4466 -4.595349,1.6188 -8.914518,7.36278 -12.235221,16.27128 -1.827195,4.90184 -2.63929,8.91942 -2.97266,14.70642 -0.280271,4.8652 0.968765,13.0927 1.936673,12.75693 z m 0.256932,-18.57275 c 0.772895,-5.7754 1.431931,-8.63499 2.628123,-11.40351 2.611286,-6.04373 6.525634,-10.16881 8.509964,-8.96811 0.673076,0.40729 0.571127,0.74496 -0.692228,2.29279 -5.730396,7.02071 -7.685177,12.18932 -9.6403,25.48982 -0.253897,1.72712 -0.5398,3.16734 -0.635368,3.20049 -0.09551,0.0331 -0.405068,-0.60648 -0.687772,-1.4214 -0.339435,-0.97846 -0.163641,-4.09972 0.517581,-9.19008 z m 9.843114,-5.40187 c 0.515006,-0.15526 0.654124,-0.0878 0.354689,0.17198 -0.270958,0.23506 -0.652265,0.35002 -0.847326,0.25546 -0.195087,-0.0946 0.02658,-0.28689 0.492658,-0.42737 z m 5.600233,-3.44627 c 0.359587,-0.12475 0.58576,-0.42295 0.502596,-0.66268 -0.08316,-0.23972 -0.445416,-0.33379 -0.805003,-0.20905 -0.359587,0.12475 -0.58576,0.42295 -0.5026,0.66267 0.08316,0.23972 0.445421,0.3338 0.805007,0.20906 z m 2.094853,-1.70335 c 0.479445,-0.16633 0.803681,-0.49855 0.720518,-0.73828 -0.08316,-0.23973 -0.543484,-0.29978 -1.022929,-0.13346 -0.479457,0.16633 -0.803693,0.49855 -0.72053,0.73828 0.08316,0.23973 0.543484,0.29978 1.022941,0.13346 z m 1.765628,-1.59663 c 0.178507,-0.0661 0.552836,-0.41228 0.831805,-0.76941 0.410168,-0.52507 0.319124,-0.58549 -0.475782,-0.31578 -0.540665,0.18341 -0.914968,0.52968 -0.831809,0.76939 0.08316,0.23973 0.297265,0.38184 0.475786,0.3158 z m -16.742824,-12.19604 c 0.250937,-2.39893 4.257286,-11.14112 5.870162,-12.80918 1.47434,-1.52479 1.871447,-0.90375 0.669364,1.04682 -2.218456,3.59977 -4.50681,9.1218 -4.913362,11.85642 -0.232908,1.5667 -0.668482,2.93407 -0.967949,3.03859 -0.75796,0.26433 -0.928593,-0.54791 -0.658215,-3.13265 z m 19.066198,47.0367 c 0.995252,-7.70432 4.412256,-17.28433 8.835165,-24.77054 1.33636,-2.26193 5.787011,-8.96679 8.309969,-12.51891 0.559448,-0.78764 0.621969,-1.37907 0.219606,-2.07727 -0.969624,-1.68256 3.446676,-8.13139 8.659552,-12.64495 3.845389,-3.32953 8.651088,-6.03024 8.990309,-5.0524 0.08316,0.23973 -0.193641,0.5555 -0.61514,0.70172 -1.127464,0.39112 -6.534446,4.8073 -9.123345,7.45151 -2.601424,2.65702 -4.855857,5.6275 -5.586661,7.36104 -0.626719,1.48663 -0.314846,1.41436 1.186262,-0.27491 2.420566,-2.72392 6.20752,-5.65146 8.208461,-6.3456 1.831135,-0.63523 2.054667,-0.61007 2.121172,0.23918 0.06786,0.86667 0.224042,0.87206 1.795686,0.0618 0.94675,-0.48811 2.082938,-1.42875 2.524871,-2.09033 2.432085,-3.64089 7.497645,-8.41032 9.778639,-9.20702 1.111954,-0.38851 2.036526,-4.516511 1.060325,-4.734451 -0.866357,-0.193424 0.494877,-3.131965 1.633869,-3.52709 1.09387,-0.379471 1.353584,0.215603 0.708778,1.62401 -0.267386,0.584042 -0.664043,2.371601 -0.881436,3.972321 -0.35693,2.62804 -0.549972,2.99341 -1.989717,3.76595 -0.983174,0.52755 -1.512142,1.09282 -1.379748,1.47446 0.118083,0.34038 -0.148901,1.31271 -0.593314,2.1607 l -0.808015,1.54181 1.347326,-0.691 c 1.097643,-0.56296 1.39852,-0.54343 1.623545,0.10523 0.151926,0.43794 0.479269,0.7258 0.727424,0.63972 0.305916,-0.10613 0.39835,0.17629 0.287091,0.87705 -0.09027,0.56846 -0.537934,1.16324 -0.994805,1.32173 -0.45686,0.15849 -0.877814,0.49937 -0.93544,0.75748 -0.05763,0.25812 -0.711259,0.81604 -1.452506,1.23983 -1.348643,0.77104 -3.953673,4.54025 -2.914672,4.21725 0.923758,-0.28724 0.897467,0.59182 -0.08723,2.91572 -0.516869,1.21977 -0.832948,2.52569 -0.702401,2.902 0.130547,0.37632 0.09775,0.85571 -0.0729,1.06531 -0.170656,0.20961 -0.08591,0.71642 0.188304,1.12624 0.711523,1.06337 -0.987889,4.23054 -3.787816,7.05933 -1.27429,1.28743 -5.424991,4.98991 -9.223773,8.22774 -12.758157,10.87422 -19.008124,17.44973 -25.355289,26.67599 -0.794476,1.15484 -1.692552,1.17755 -2.077845,0.0525 -0.139392,-0.4058 0.03005,-2.92738 0.375712,-5.60322 z m 4.553497,-0.87749 c 5.000496,-6.54854 10.859822,-12.38971 21.778905,-21.71144 8.555514,-7.30394 10.039444,-9.10591 4.387986,-5.32846 -1.308133,0.87437 -2.98306,1.91136 -3.722067,2.30442 -0.738973,0.39311 -1.39093,0.92653 -1.44875,1.18549 -0.144465,0.64706 -2.197042,1.31266 -2.384212,0.77312 -0.08316,-0.23973 0.327572,-0.60196 0.912728,-0.80495 0.585168,-0.203 1.110735,-0.57869 1.167931,-0.83486 0.09881,-0.44253 2.314922,-2.19156 5.778846,-4.56082 0.868276,-0.59389 2.502277,-1.87989 3.631122,-2.85777 1.882928,-1.63115 2.043292,-1.95351 1.941632,-3.9031 -0.121166,-2.32368 -0.808488,-3.62576 -1.742815,-3.30164 -0.852498,0.29574 -1.570514,-0.41853 -1.19637,-1.19013 0.861059,-1.77583 -1.0406,-3.40409 -3.980884,-3.40854 -1.795017,-0.003 -6.274799,2.31935 -8.135667,4.21706 -3.491784,3.56092 -12.95753,18.20661 -15.249668,23.59477 -2.167219,5.09454 -4.040362,11.44585 -4.647015,15.75683 -0.28685,2.03844 -0.414305,3.75828 -0.283221,3.82185 0.131134,0.0636 1.567268,-1.62477 3.191511,-3.75185 z m 0.578754,-7.76921 c 1.583361,-5.13232 7.743767,-16.12131 12.433326,-22.1787 4.357034,-5.62789 7.602835,-8.18392 8.7157,-6.86354 0.830277,0.98508 -0.665232,3.64949 -4.080312,7.26944 -7.154591,7.58383 -10.436279,12.19868 -16.49755,23.19963 -0.497081,0.90218 -1.22722,1.56172 -1.316446,1.18916 -0.01461,-0.0621 0.320526,-1.23918 0.745282,-2.61599 z m 16.876731,-14.11816 c 0.239716,-0.0831 0.503898,0.0449 0.587061,0.28467 0.08316,0.23972 -0.04494,0.5039 -0.284654,0.58706 -0.239728,0.0832 -0.503909,-0.0449 -0.587069,-0.28465 -0.08316,-0.23973 0.04493,-0.50391 0.284662,-0.58708 z M -26.42468,120.3767 c 0.239728,-0.0832 0.363809,-0.35892 0.275738,-0.6128 -0.08807,-0.25387 -0.314213,-0.27231 -0.502542,-0.041 -0.188322,0.23131 -0.312403,0.50707 -0.275731,0.61278 0.03669,0.10576 0.262819,0.12417 0.502535,0.041 z m -52.510585,-9.34091 c 0.526651,-0.88385 1.727965,-2.33005 2.66959,-3.21378 2.195033,-2.0601 2.985675,-2.86852 5.940576,-6.07417 2.692785,-2.921325 3.240372,-3.328221 2.358761,-1.752771 -0.612786,1.095071 -1.653232,2.333681 -4.337769,5.163941 -0.856827,0.90333 -1.731985,1.9775 -1.94481,2.38705 -0.212837,0.40955 -0.531786,0.79487 -0.708787,0.85628 -0.176989,0.0614 -1.049647,1.35298 -1.939221,2.87016 -0.88957,1.5172 -1.797531,2.82101 -2.017677,2.89739 -0.901635,0.31278 -0.914466,-1.63409 -0.02066,-3.1341 z m 11.246049,20.92743 c 1.383468,-0.25898 2.630825,-0.88635 4.261708,-2.14343 2.614357,-2.01515 3.323089,-2.36377 3.539182,-1.74085 0.08316,0.23972 -0.161777,0.54444 -0.544307,0.67714 -0.382543,0.13271 -1.122354,0.69219 -1.644045,1.24332 -2.401328,2.53683 -3.453862,3.22961 -5.925105,3.90001 -0.702767,0.19064 -1.100146,-0.004 -1.323787,-0.64879 -0.29047,-0.83731 -0.141429,-0.95457 1.636354,-1.2874 z m 23.468618,69.08053 c 0.267506,-0.19661 2.90346,-1.30791 5.85765,-2.46962 6.965506,-2.73916 12.252597,-6.27284 17.243757,-11.52504 2.312737,-2.43368 3.656883,-4.40307 5.827699,-8.53847 2.350172,-4.47707 4.168038,-6.66656 7.2498905,-8.73189 2.0878217,-1.39918 2.7592682,-1.67276 3.6221775,-1.47587 0.8312363,0.18966 1.4606849,-0.0216 2.9238794,-0.98151 1.41972273,-0.93137 1.94719069,-1.11583 2.21055494,-0.77378 0.53336826,0.69342 0.90146986,0.39527 2.50784176,-2.03132 1.0094439,-1.52485 1.3761295,-2.56993 1.1402772,-3.2498 -0.5928175,-1.70886 1.5141444,-4.27908 2.4792615,-3.02437 0.1919097,0.24955 0.5411465,-0.40699 0.7760111,-1.45893 0.4314645,-1.93261 2.4873421,-4.07411 3.6598941,-3.81232 0.318369,0.0711 0.867105,-0.41818 1.219368,-1.08739 0.664061,-1.26132 4.143024,-4.22059 4.664531,-3.96772 0.592315,0.28721 0.01226,1.27523 -2.06542,3.51809 -1.165764,1.25843 -2.061011,2.45688 -1.989433,2.66322 0.196245,0.56569 0.402748,0.4164 3.346013,-2.41895 1.763331,-1.6987 3.355152,-2.83268 4.517052,-3.21787 2.11439,-0.70097 3.176777,-2.07081 4.287316,-5.52812 2.703934,-8.41785 3.473263,-9.80188 5.032154,-9.05279 0.349612,0.16799 1.247281,-0.59754 2.413118,-2.05793 1.02103,-1.27898 2.115061,-2.41516 2.431182,-2.52483 0.316121,-0.10966 1.155083,-1.28171 1.864364,-2.60457 1.909107,-3.5606 6.73424,-6.6992 5.091906,-3.3121 -0.297209,0.61295 -1.029761,1.69157 -1.627895,2.39694 -0.598122,0.70536 -1.034133,1.43633 -0.968902,1.62436 0.172602,0.49755 0.76602,0.20301 1.138442,-0.56505 0.177351,-0.36576 0.706067,-0.65256 1.174913,-0.63733 0.751406,0.0244 0.758657,0.23219 0.06118,1.75275 -0.571709,1.24635 -1.199869,1.86677 -2.263815,2.23586 -1.797488,0.62356 -7.147432,5.66433 -6.538188,6.16034 0.566483,0.4612 5.407841,-1.23411 7.342118,-2.57098 1.685435,-1.16491 2.435026,-1.12418 1.790092,0.0973 -0.889708,1.68503 -2.913991,2.80858 -5.723007,3.17648 -2.489494,0.32607 -2.72484,0.4411 -3.557297,1.73884 -0.649982,1.01322 -1.249201,1.43196 -2.212183,1.54584 -0.988042,0.11686 -1.263879,0.3201 -1.094985,0.80696 0.503101,1.45024 -10.548926,13.24321 -13.377313,14.27415 -2.196823,0.80071 -6.9110312,6.53069 -6.6238716,8.05107 0.1205332,0.63833 -0.1944555,1.22142 -0.8921159,1.65126 -2.1799668,1.34313 -2.628878,1.75173 -4.4207265,4.02376 -2.2106134,2.80303 -1.9395417,3.97435 0.5081067,2.19551 1.4518941,-1.05517 1.4659222,0.41765 0.018753,1.96861 -0.7084095,0.75921 -1.6535169,2.71033 -2.1060665,4.34782 -2.02099458,7.31281 -7.0270053,14.3024 -12.9906492,18.13805 -1.09791,0.70615 -2.614384,1.71893 -3.369951,2.25063 -1.638473,1.15301 -12.37623,4.57504 -15.389733,4.90457 -4.856726,0.5311 -7.862923,0.55884 -11.460327,0.10575 -3.549984,-0.44712 -4.879468,-1.16404 -3.727841,-2.01022 z m 8.177355,0.69808 c 14.774556,-0.12962 28.3276451,-6.84693 33.6944212,-16.69998 2.11703649,-3.88673 3.0958087,-9.63308 1.54942824,-9.09663 -0.23972854,0.0832 -0.37330754,0.33155 -0.29684754,0.55195 0.50541495,1.45692 -5.7281062,12.14185 -7.0931707,12.15846 -0.286741,0.004 0.062366,-0.7609 0.7758199,-1.69865 3.4786157,-4.57221 6.78876419,-12.96983 5.6465752,-14.32499 -0.6058927,-0.71885 -3.074258,-1.14443 -4.2573082,-0.73402 -1.7869492,0.6199 -4.2392641,3.06318 -5.3824641,5.36264 -0.657566,1.32262 -1.453254,2.34725 -1.768207,2.27693 -0.36378,-0.0812 -0.378946,0.10198 -0.04163,0.50214 0.435067,0.5162 0.329756,0.63534 -0.583127,0.65962 -0.890086,0.0237 -1.01392,0.14848 -0.615877,0.62075 0.313087,0.37146 0.2755,0.58388 -0.101167,0.57165 -0.329687,-0.0108 -1.820891,1.51768 -3.313829,3.39645 -5.059932,6.36759 -10.349712,10.5495 -17.064288,13.4904 -5.961454,2.61103 -6.114841,3.00684 -1.148329,2.96328 z m 10.00009,-5.49821 c 2.662171,-1.42847 7.026728,-5.02331 9.021947,-7.43088 1.035455,-1.24945 2.926983,-4.00871 4.203389,-6.13169 1.45964,-2.42775 2.717145,-3.99747 3.389109,-4.23058 3.3754856,-1.17098 -0.1444516,6.14736 -5.732869,11.91929 -2.448045,2.52845 -7.302208,5.78729 -10.029723,6.73349 -2.591509,0.89901 -3.125361,0.36029 -0.851853,-0.85963 z m -24.663811,-19.46015 c 0.222801,-0.36286 1.814614,-1.84932 3.537382,-3.30324 6.793572,-5.73344 12.737651,-12.64382 19.037069,-22.13185 2.27025,-3.41938 2.78795,-4.53896 2.424578,-5.24331 -0.64299,-1.24635 0.591745,-5.36829 2.282735,-7.62054 2.494535,-3.32246 6.500405,-6.0654 7.577463,-5.18852 0.224544,0.18282 -0.09783,0.64136 -0.716386,1.019 -3.582242,2.187 -6.820399,6.16605 -7.394378,9.0862 -0.175484,0.89277 -0.23204,1.59305 -0.125686,1.55616 0.445727,-0.15463 6.316326,-6.69818 6.418041,-7.15372 0.0611,-0.27369 0.701774,-1.02589 1.423724,-1.67158 1.320204,-1.18076 2.844362,-1.37432 3.968006,-0.50392 0.255318,0.1978 0.884694,0.0165 1.553856,-0.44755 0.61859,-0.42898 1.3687582,-0.82282 1.6670354,-0.87519 0.2982687,-0.0524 0.8268175,-0.96043 1.1745222,-2.01788 0.3477214,-1.05745 1.0113867,-2.19866 1.4747962,-2.53602 0.4634261,-0.33735 1.0783187,-1.02844 1.3664243,-1.53576 0.2881137,-0.50734 0.9953522,-1.14627 1.5716299,-1.41987 0.5763029,-0.27356 1.4268371,-1.08834 1.8901013,-1.81052 0.99808157,-1.55589 3.6563096,-2.67516 4.0000606,-1.68426 0.1233417,0.35554 -0.5661439,1.4651 -1.53220505,2.46565 -1.83172939,1.89715 -2.77234735,3.42524 -2.53304045,4.11507 0.2657952,0.76619 1.23637139,0.0208 2.7614239,-2.12071 0.8407196,-1.18055 2.2918384,-2.69646 3.2247013,-3.36868 4.389079,-3.16277 8.4403224,-8.49045 8.8401714,-11.62545 0.206944,-1.62262 6.209058,-7.30852 8.58503,-8.13277 1.389259,-0.48194 1.736479,0.23594 0.658985,1.36241 -2.303799,2.40853 -3.821021,4.29251 -4.283116,5.31849 -0.630943,1.40089 -0.33467,1.28069 1.466439,-0.59495 0.800465,-0.83358 1.611383,-1.43994 1.802043,-1.3475 0.361616,0.17534 -1.512001,3.66803 -2.094735,3.90486 -0.854177,0.34712 -3.293966,4.89743 -2.946736,5.49575 0.210246,0.36226 -0.05178,1.38707 -0.582263,2.27736 -0.962332,1.61501 -2.505789,2.5903 -2.792294,1.76442 -0.269344,-0.77642 -1.34665,-0.056 -3.7929921,2.53661 -2.4569173,2.60378 -3.2866699,3.22065 -3.0786205,2.2888 0.231001,-1.03468 -1.0439825,-0.10034 -2.530721,1.85455 -0.9766182,1.28419 -2.064791,2.17781 -3.08413445,2.53279 -0.91301085,0.3177 -1.91381685,1.07656 -2.38088435,1.80467 -0.4431934,0.6909 -1.0200429,1.3305 -1.2818996,1.42134 -0.6303391,0.21867 -0.3515582,0.96611 0.3570796,0.9575 0.9075025,-0.0111 0.3316957,2.22179 -0.6618377,2.56645 -0.766469,0.26589 -0.7494668,0.60615 0.1618079,3.24002 1.4892945,4.30503 1.4520398,6.0118 -0.1980673,9.04148 -2.0357657,3.73771 -2.7412078,4.79656 -3.3322449,5.00159 -0.3325657,0.11537 -0.3153631,0.278 0.048071,0.45419 0.6649717,0.32244 2.7324714,-1.20954 5.88899954,-4.36363 3.04221496,-3.03987 4.86338706,-5.65719 6.56152216,-9.43 0.8129901,-1.80626 1.5994707,-3.22528 1.7477451,-3.15338 0.8557481,0.41494 -1.613247,6.33587 -4.1360503,9.91871 -1.3008231,1.84741 -1.3299443,1.99757 -0.3501791,1.80586 1.8571979,-0.36342 1.4407799,0.55933 -1.1493588,2.54689 -3.2217452,2.47224 -6.7667857,4.21261 -8.4783135,4.16228 -1.1326985,-0.0333 -1.7578077,0.38812 -4.1588137,2.8039 -1.554159,1.56371 -3.164449,3.09116 -3.578417,3.39431 -4.691362,3.43555 -11.105785,7.83932 -13.382782,9.18784 -7.244306,4.2903 -21.587071,7.37562 -22.856004,4.91658 -0.244456,-0.47365 -0.262105,-1.15808 -0.0393,-1.52095 z m 5.177542,0.78054 c 6.266685,-0.65266 16.879081,-4.91141 22.825378,-9.1598 0.6457,-0.46132 2.497682,-1.77383 4.115541,-2.91668 4.991981,-3.52633 9.9970031,-8.85268 11.7481104,-12.50236 1.4101463,-2.93908 2.1004521,-5.77939 1.2341965,-5.07825 -0.1932602,0.15647 -0.9344962,1.39898 -1.6471486,2.76125 -1.308235,2.50069 -5.0737333,7.48802 -7.1067633,9.41276 -0.606521,0.57422 -1.38325,1.33544 -1.726063,1.6916 -0.3428,0.35616 -1.069387,0.79543 -1.614639,0.97616 -0.692394,0.22912 -0.376831,-0.29833 1.045654,-1.74947 3.321042,-3.38791 7.5742304,-9.27823 8.9734772,-12.42753 l 1.3060389,-2.93952 -1.2924519,-0.82907 c -1.5225647,-0.97671 -1.9679341,-1.928 -1.0514727,-2.24593 0.881595,-0.30583 0.6354154,-0.82494 -0.8401344,-1.77147 -1.3865351,-0.88944 -5.0508661,-0.84644 -6.2835311,0.0737 -0.890795,0.66496 -5.825859,7.14172 -8.092788,10.62092 -2.097876,3.21975 -2.547702,2.95836 -0.764514,-0.44426 2.759675,-5.26593 1.498094,-4.02574 -3.620095,3.55871 -4.665972,6.91432 -11.039186,14.09587 -17.398975,19.60574 -1.910221,1.65493 -3.417669,3.16879 -3.349897,3.36415 0.06777,0.19535 1.660793,0.19504 3.540077,-6.9e-4 z m 6.364045,-5.88883 c 0.351457,-0.12193 1.185135,-0.72757 1.852631,-1.34587 0.667484,-0.61831 1.973892,-1.78306 2.903113,-2.58835 5.286675,-4.58154 12.905889,-13.24807 15.931915,-18.12187 1.534942,-2.47221 2.764434,-3.44813 3.837154,-3.04582 2.186708,0.8201 -0.904538,6.49769 -6.568478,12.06409 -3.655266,3.59231 -5.286294,4.93576 -11.773647,9.69781 -1.926583,1.4142 -3.632374,2.79975 -3.790657,3.07898 -0.404791,0.7141 -2.697104,1.44528 -2.879812,0.91861 -0.08316,-0.23973 0.136337,-0.53562 0.487794,-0.65755 z m 16.819473,-5.7577 c 0.599315,-0.20791 0.878812,-0.19399 0.621096,0.0308 -0.257703,0.22492 -0.748045,0.39502 -1.089657,0.37801 -0.341625,-0.017 -0.130754,-0.20094 0.468561,-0.40885 z m 2.536311,-1.8384 c 0.722189,-0.24085 0.997612,-0.22663 0.611849,0.0309 -0.385767,0.25757 -0.976671,0.45453 -1.31321,0.43743 -0.336496,-0.017 -0.02089,-0.22782 0.701348,-0.46842 z m -39.442689,-37.68574 c 0.359587,-0.12475 0.721844,-0.0307 0.805003,0.20904 0.08316,0.23973 -0.143009,0.53794 -0.502596,0.66268 -0.359586,0.12474 -0.721831,0.0307 -0.804995,-0.20907 -0.08316,-0.23971 0.143002,-0.53791 0.502588,-0.66265 z m 1.326767,-10.04149 c 1.260045,-2.50032 3.415826,-5.144 3.64827,-4.47395 0.07155,0.20626 -0.260873,1.07553 -0.73874,1.93171 -0.47785,0.85618 -0.8801,1.75533 -0.893889,1.99808 -0.02986,0.52594 -2.215209,3.84647 -2.625057,3.98864 -0.765246,0.26547 -0.497464,-1.24805 0.609416,-3.44448 z m -6.152407,-22.955129 c 0.253875,-0.08807 0.408416,0.07806 0.343416,0.369188 -0.065,0.291128 -0.204662,0.559321 -0.310385,0.595998 -0.105761,0.03669 -0.260253,-0.12946 -0.343416,-0.369189 -0.08316,-0.239729 0.05651,-0.507926 0.310385,-0.595997 z m 10.650854,14.677349 c 0.539097,-1.11181 1.456847,-2.5836 2.039451,-3.27066 0.582616,-0.68706 1.005921,-1.40305 0.940687,-1.5911 -0.06523,-0.18803 0.224853,-0.46033 0.644641,-0.6051 0.867667,-0.29962 -3.035931,7.34711 -3.925147,7.68839 -0.813372,0.31221 -0.768991,-0.0161 0.300368,-2.22153 z M -63.894635,79.171892 c 0.129421,-0.0449 1.153648,0.04574 2.276078,0.201438 1.639039,0.227341 2.920637,-0.01582 6.510544,-1.235304 2.462076,-0.836395 4.794833,-1.398245 5.19343,-1.250931 1.334533,0.493213 5.457755,0.913182 6.253926,0.636984 0.433298,-0.150314 0.934307,-0.85643 1.113354,-1.56915 0.4463,-1.776567 3.552261,-5.90921 4.754659,-6.326331 0.540566,-0.187526 1.414822,-0.242387 1.942803,-0.121921 1.112502,0.253847 2.53864,-0.974245 5.889057,-5.071362 1.51719,-1.855306 3.018366,-3.07059 5.718743,-4.629615 2.013844,-1.16266 4.534357,-2.942222 5.601142,-3.954599 1.066777,-1.012361 2.129928,-1.906692 2.362552,-1.987391 0.232624,-0.0807 0.354902,-0.342861 0.271739,-0.58259 -0.08316,-0.239728 0.241072,-0.571952 0.72053,-0.738279 1.125079,-0.390298 1.209405,-0.06594 0.365217,1.404712 -0.956392,1.666131 -3.646375,4.12868 -5.034072,4.608463 -1.058039,0.365809 -2.994664,2.03931 -5.322514,4.599366 -0.48602,0.534493 -1.34042,1.398694 -1.898669,1.920454 -0.558266,0.521753 -1.005725,1.29784 -0.994374,1.724627 0.0113,0.426805 -0.375131,1.549548 -0.858855,2.495019 -0.740812,1.447997 -1.036704,1.683168 -1.876612,1.491532 -1.1381,-0.259682 -2.820541,0.7594 -4.19358,2.540129 -0.63027,0.817428 -1.361488,1.215065 -2.624969,1.427458 -1.637522,0.27528 -1.753972,0.392045 -1.791923,1.796786 -0.03049,1.128772 -0.314583,1.597435 -1.142384,1.884605 -0.605987,0.210221 -1.291061,0.228135 -1.522384,0.03982 -0.231328,-0.188329 -0.803945,-0.209428 -1.272505,-0.04688 -0.46856,0.162547 -1.252606,0.240431 -1.742338,0.173082 -0.489733,-0.06735 -1.568882,-0.177928 -2.398139,-0.245732 -0.829241,-0.0678 -1.94647,-0.286935 -2.482723,-0.486989 -0.774381,-0.28888 -1.781209,-0.01402 -4.893058,1.335757 -2.154931,0.934721 -3.977514,1.822112 -4.050181,1.971997 -0.0727,0.149938 0.180481,0.424092 0.562554,0.609363 0.382085,0.185267 0.759911,0.544955 0.839609,0.799312 0.07991,0.254285 -0.197149,0.248119 -0.615207,-0.01387 -0.418069,-0.261983 -1.819523,-0.838066 -3.114326,-1.280169 -1.991498,-0.679975 -3.376037,-1.832235 -2.547124,-2.119791 z m 33.280147,57.631838 c 1.330444,-0.61649 3.282469,-1.61341 4.337824,-2.21539 1.200749,-0.68491 1.8769,-0.90666 1.806765,-0.59259 -0.209257,0.93731 -3.150149,3.31401 -5.559937,4.49331 -2.217732,1.08531 -2.423276,1.10853 -2.701989,0.3051 -0.256315,-0.73885 0.06192,-1.03803 2.117333,-1.99044 z m -15.47113,-42.42191 c 0.426335,-0.548172 1.80213,-1.836911 3.057321,-2.863861 3.289332,-2.69123 8.950526,-7.569971 9.675129,-8.337887 0.822002,-0.871165 1.902233,-1.221958 2.09063,-0.678884 0.08316,0.239716 -0.124913,0.531642 -0.462372,0.648708 -0.337471,0.117071 -1.398941,1.016245 -2.358815,1.998165 -3.207584,3.281198 -11.211268,11.080374 -11.599175,11.302798 -0.82363,0.472245 -1.135002,-1.127467 -0.40271,-2.069014 z m 29.248588,78.51264 c 0.77578,-2.84575 3.600756,-7.05174 5.530515,-8.23414 1.005028,-0.61582 0.855486,-0.22452 -0.889586,2.32695 -1.153763,1.68697 -1.843942,3.06414 -1.533733,3.06037 0.3102,-0.004 1.781557,-0.88228 3.26967,-1.95223 1.4880966,-1.06996 3.2238836,-2.12515 3.8572744,-2.34488 0.6334032,-0.21973 1.0836012,-0.59565 1.0004376,-0.83538 -0.083164,-0.23973 0.4908575,-0.64373 1.2755936,-0.89778 1.4036186,-0.4544 1.4116317,-0.44846 0.4936461,0.36728 -0.5132284,0.45606 -1.2126736,1.12332 -1.5543375,1.4828 -0.3416472,0.35948 -0.9207164,0.7575 -1.2868142,0.8845 -0.3660978,0.12701 -0.9401479,0.5395 -1.2756741,0.91666 -0.4982117,0.56004 -7.9028919,7.95953 -8.8791289,8.87289 -0.662044,0.61942 -0.66605,-1.23267 -0.0079,-3.64704 z m -8.096552,-42.94089 c 0.425039,-0.51672 1.563487,-1.82743 2.529878,-2.9127 0.966387,-1.08528 3.518064,-4.31034 5.670416,-7.1668 2.152335,-2.85648 4.057222,-5.24349 4.233099,-5.30451 0.569007,-0.19739 -1.250002,3.42234 -3.060597,6.09046 -0.969269,1.42831 -1.514304,2.59391 -1.211208,2.59022 0.303097,-0.004 2.269502,-1.71471 4.369809,-3.80227 4.6014798,-4.57355 5.6140931,-5.11048 2.7694835,-1.46851 -4.0834485,5.22806 -9.8934785,10.51294 -14.2315305,12.94521 -1.743617,0.9776 -2.275216,0.49485 -1.06935,-0.9711 z m 3.220568,-13.94232 c 1.836058,-1.90745 4.248656,-5.05476 5.016903,-6.54473 1.105209,-2.14343 2.607774,-4.20382 2.755392,-3.77829 0.490075,1.4127 -2.830226,6.62365 -6.635204,10.41345 -2.201607,2.19281 -2.181245,2.17833 -2.355775,1.67522 -0.07007,-0.20197 0.478347,-0.99652 1.218684,-1.76565 z m 26.5893722,62.81857 c 4.4285364,-7.24774 5.8942948,-9.33993 6.7518088,-9.63741 0.324362,-0.11252 0.743457,-0.5216 0.931342,-0.90906 0.187873,-0.38746 0.38533,-0.5784 0.438795,-0.42428 0.05347,0.15412 -0.906685,1.83635 -2.133661,3.7383 -1.2269894,1.90196 -3.2533552,5.36428 -4.5030392,7.69403 -2.1989717,4.09944 -2.2297247,4.22119 -0.9548628,3.77894 1.4062351,-0.48784 4.878446,-3.00474 7.733615,-5.60589 3.769572,-3.43419 2.761628,-1.20518 -1.234395,2.72979 -4.4149676,4.34751 -9.7432634,7.22586 -10.6027133,5.72758 -0.2315536,-0.40373 1.0938182,-3.03443 3.5731105,-7.092 z M -13.247229,102.11397 c 0.421509,-1.07609 0.663436,-2.279016 0.537611,-2.673165 -0.318101,-0.996367 0.784329,-8.75516 1.400027,-9.853649 0.776614,-1.385572 4.1369168,-5.20792 4.2679297,-4.854799 0.063922,0.172293 -0.4605025,1.352651 -1.1654017,2.623025 -0.8074636,1.455214 -1.0513263,2.322694 -0.6591302,2.344701 0.8532838,0.04788 1.0366655,0.782832 0.5066797,2.030635 -0.6506204,1.531819 0.3309476,1.027014 2.3798772,-1.223932 1.3304351,-1.46163 1.8929642,-1.821663 2.4939782,-1.59625 0.6124643,0.22969 1.0901776,-0.255688 2.2661618,-2.302635 0.81954583,-1.42653 1.50443663,-2.763478 1.52197864,-2.970994 0.0483687,-0.572375 1.15079196,-0.836934 1.51492226,-0.363544 0.281308,0.365722 1.5444654,-0.723762 6.9739044,-6.014995 0.4513147,-0.439816 1.0075709,-0.709 1.236123,-0.598179 0.228552,0.110822 0.02205,0.464781 -0.4588783,0.786583 -0.4809362,0.321788 -0.814313,0.758341 -0.7408489,0.97011 0.073464,0.211768 -0.280233,0.528576 -0.7859819,0.704024 -0.5533784,0.191971 -1.5616044,1.708484 -2.5318727,3.808245 -0.886773,1.919085 -1.7806428,3.548578 -1.9863846,3.6211 -0.2057418,0.07252 -1.0531639,1.024789 -1.8831487,2.116141 -0.82999716,1.091356 -1.87820402,2.113276 -2.32935776,2.270933 -1.14951344,0.401543 -5.77710184,5.270512 -6.71586164,7.065875 -0.522658,0.999591 -1.0910453,1.499509 -1.7240056,1.516342 -0.6879609,0.01829 -1.3379049,0.759658 -2.3944829,2.731288 -0.797614,1.48839 -1.596583,2.75928 -1.775489,2.82421 -0.70187,0.25456 -0.678231,-1.09771 0.05165,-2.96107 z M 10.912899,75.194969 c 0.373733,-0.129651 0.626338,0.0025 0.561338,0.29359 -0.06499,0.291111 -0.302742,0.593332 -0.528312,0.671584 -0.225582,0.07826 -0.478186,-0.05386 -0.561345,-0.293574 -0.08316,-0.239728 0.154573,-0.541945 0.528319,-0.6716 z"
       id="path3805"
       inkscape:connector-curvature="0" />
  </g>
</svg>
